<svg xmlns="http://www.w3.org/2000/svg" xmlns:xlink="http://www.w3.org/1999/xlink" viewBox="0 0 3600 2000"><defs><style>.cls-1{isolation:isolate;}.cls-15,.cls-2,.cls-29,.cls-65{fill:#fff;}.cls-3{fill:#97f9e3;}.cls-16,.cls-4{fill:#b7d972;}.cls-13,.cls-4{opacity:0.6;}.cls-5{fill:#473b1e;}.cls-50,.cls-6{fill:#847d3d;}.cls-7{fill:url(#Íîâûé_îáðàçåö_ãðàäèåíòà_8);}.cls-8{fill:url(#Íîâûé_îáðàçåö_ãðàäèåíòà_7);}.cls-9{fill:url(#Íîâûé_îáðàçåö_ãðàäèåíòà_8-2);}.cls-10{fill:url(#Íîâûé_îáðàçåö_ãðàäèåíòà_9);}.cls-11{fill:url(#Íîâûé_îáðàçåö_ãðàäèåíòà_10);}.cls-12{fill:#efac7f;}.cls-13,.cls-66{fill:#d19369;}.cls-14{fill:url(#Íîâûé_îáðàçåö_ãðàäèåíòà_11);}.cls-15{opacity:0.1;mix-blend-mode:color-dodge;}.cls-17{fill:url(#Íîâûé_îáðàçåö_ãðàäèåíòà_10-2);}.cls-18{fill:url(#Íîâûé_îáðàçåö_ãðàäèåíòà_9-2);}.cls-19{fill:url(#Íîâûé_îáðàçåö_ãðàäèåíòà_9-3);}.cls-20{fill:url(#Íîâûé_îáðàçåö_ãðàäèåíòà_9-4);}.cls-21,.cls-81{fill:#45258f;}.cls-21,.cls-46{opacity:0.2;}.cls-21,.cls-26,.cls-30,.cls-46,.cls-48,.cls-49,.cls-55{mix-blend-mode:multiply;}.cls-22{fill:url(#Íîâûé_îáðàçåö_ãðàäèåíòà_9-5);}.cls-23{fill:url(#Íîâûé_îáðàçåö_ãðàäèåíòà_9-6);}.cls-24{fill:url(#Íîâûé_îáðàçåö_ãðàäèåíòà_9-7);}.cls-25{fill:url(#Íîâûé_îáðàçåö_ãðàäèåíòà_7-2);}.cls-26,.cls-29,.cls-47,.cls-50{opacity:0.3;}.cls-26{fill:url(#Íîâûé_îáðàçåö_ãðàäèåíòà_7-3);}.cls-27{fill:url(#Íîâûé_îáðàçåö_ãðàäèåíòà_7-4);}.cls-28{fill:url(#Íîâûé_îáðàçåö_ãðàäèåíòà_8-3);}.cls-30,.cls-44,.cls-48,.cls-78{opacity:0.5;}.cls-30{fill:url(#Íîâûé_îáðàçåö_ãðàäèåíòà_8-4);}.cls-31{fill:url(#Íîâûé_îáðàçåö_ãðàäèåíòà_9-8);}.cls-32{fill:url(#Íîâûé_îáðàçåö_ãðàäèåíòà_9-9);}.cls-33{fill:url(#Íîâûé_îáðàçåö_ãðàäèåíòà_9-10);}.cls-34{fill:url(#Íîâûé_îáðàçåö_ãðàäèåíòà_9-11);}.cls-35{fill:url(#Íîâûé_îáðàçåö_ãðàäèåíòà_11-2);}.cls-36{fill:url(#Íîâûé_îáðàçåö_ãðàäèåíòà_9-12);}.cls-37{fill:url(#Íîâûé_îáðàçåö_ãðàäèåíòà_9-13);}.cls-38{fill:url(#Íîâûé_îáðàçåö_ãðàäèåíòà_7-5);}.cls-39{fill:url(#Íîâûé_îáðàçåö_ãðàäèåíòà_9-14);}.cls-40{opacity:0.8;}.cls-41,.cls-64{fill:#d1eaf2;}.cls-42{fill:url(#Íîâûé_îáðàçåö_ãðàäèåíòà_8-5);}.cls-43{fill:url(#Íîâûé_îáðàçåö_ãðàäèåíòà_8-6);}.cls-45{fill:url(#Íîâûé_îáðàçåö_ãðàäèåíòà_11-3);}.cls-46,.cls-48{fill:#74bdc1;}.cls-49{fill:#f4a640;}.cls-51{fill:url(#Íîâûé_îáðàçåö_ãðàäèåíòà_9-15);}.cls-52{fill:url(#Íîâûé_îáðàçåö_ãðàäèåíòà_9-16);}.cls-53{fill:url(#Íîâûé_îáðàçåö_ãðàäèåíòà_7-6);}.cls-54{fill:url(#Íîâûé_îáðàçåö_ãðàäèåíòà_7-7);}.cls-55,.cls-79{fill:#7772d6;}.cls-56{fill:url(#Íîâûé_îáðàçåö_ãðàäèåíòà_9-17);}.cls-57{fill:url(#Íîâûé_îáðàçåö_ãðàäèåíòà_9-18);}.cls-58{fill:url(#Íîâûé_îáðàçåö_ãðàäèåíòà_9-19);}.cls-59{fill:url(#Íîâûé_îáðàçåö_ãðàäèåíòà_9-20);}.cls-60{fill:url(#Íîâûé_îáðàçåö_ãðàäèåíòà_9-21);}.cls-61{fill:url(#Íîâûé_îáðàçåö_ãðàäèåíòà_9-22);}.cls-62{fill:url(#Íîâûé_îáðàçåö_ãðàäèåíòà_9-23);}.cls-63,.cls-70{fill:#edfdfc;}.cls-63,.cls-64,.cls-65{opacity:0.9;}.cls-67{fill:#333;}.cls-68{fill:#282828;}.cls-69{fill:#002a24;}.cls-71{fill:url(#Íîâûé_îáðàçåö_ãðàäèåíòà_11-4);}.cls-72{fill:#ffc0bb;}.cls-73{fill:url(#Íîâûé_îáðàçåö_ãðàäèåíòà_7-8);}.cls-74{fill:url(#Íîâûé_îáðàçåö_ãðàäèåíòà_7-9);}.cls-75{fill:url(#Íîâûé_îáðàçåö_ãðàäèåíòà_7-10);}.cls-76{fill:url(#Íîâûé_îáðàçåö_ãðàäèåíòà_7-11);}.cls-77{fill:url(#Íîâûé_îáðàçåö_ãðàäèåíòà_11-5);}.cls-78{fill:#f3fdff;}.cls-80{fill:url(#Íîâûé_îáðàçåö_ãðàäèåíòà_11-6);}.cls-82{fill:url(#Íîâûé_îáðàçåö_ãðàäèåíòà_7-12);}.cls-83{fill:url(#Íîâûé_îáðàçåö_ãðàäèåíòà_7-13);}.cls-84{fill:url(#Íîâûé_îáðàçåö_ãðàäèåíòà_7-14);}.cls-85{fill:url(#Íîâûé_îáðàçåö_ãðàäèåíòà_7-15);}.cls-86{fill:url(#Íîâûé_îáðàçåö_ãðàäèåíòà_7-16);}</style><linearGradient id="Íîâûé_îáðàçåö_ãðàäèåíòà_8" x1="1799.96" y1="817.83" x2="2027.57" y2="817.83" gradientUnits="userSpaceOnUse"><stop offset="0" stop-color="#c9cd55"/><stop offset="0.51" stop-color="#659c52"/><stop offset="1" stop-color="#287f50"/></linearGradient><linearGradient id="Íîâûé_îáðàçåö_ãðàäèåíòà_7" x1="1736.87" y1="891.23" x2="2049.23" y2="891.23" gradientUnits="userSpaceOnUse"><stop offset="0" stop-color="#fb9a2b"/><stop offset="1" stop-color="#e65925"/></linearGradient><linearGradient id="Íîâûé_îáðàçåö_ãðàäèåíòà_8-2" x1="1795.88" y1="918.44" x2="2043.53" y2="918.44" xlink:href="#Íîâûé_îáðàçåö_ãðàäèåíòà_8"/><linearGradient id="Íîâûé_îáðàçåö_ãðàäèåíòà_9" x1="2935.67" y1="1279.18" x2="2930.17" y2="1147.1" gradientUnits="userSpaceOnUse"><stop offset="0" stop-color="#53cd9f"/><stop offset="1" stop-color="#0d7a5c"/></linearGradient><linearGradient id="Íîâûé_îáðàçåö_ãðàäèåíòà_10" x1="1916.06" y1="872.07" x2="2307.24" y2="872.07" gradientUnits="userSpaceOnUse"><stop offset="0" stop-color="#c7a44f"/><stop offset="1" stop-color="#609a3f"/></linearGradient><linearGradient id="Íîâûé_îáðàçåö_ãðàäèåíòà_11" x1="1659.23" y1="1347.34" x2="2073.83" y2="1347.34" gradientUnits="userSpaceOnUse"><stop offset="0" stop-color="#00503e"/><stop offset="1" stop-color="#023222"/></linearGradient><linearGradient id="Íîâûé_îáðàçåö_ãðàäèåíòà_10-2" x1="1538.63" y1="1605.82" x2="1962.57" y2="1605.82" xlink:href="#Íîâûé_îáðàçåö_ãðàäèåíòà_10"/><linearGradient id="Íîâûé_îáðàçåö_ãðàäèåíòà_9-2" x1="1587.8" y1="1924.64" x2="1709.79" y2="1794.39" xlink:href="#Íîâûé_îáðàçåö_ãðàäèåíòà_9"/><linearGradient id="Íîâûé_îáðàçåö_ãðàäèåíòà_9-3" x1="1650.01" y1="1615.94" x2="1885.73" y2="1930.54" xlink:href="#Íîâûé_îáðàçåö_ãðàäèåíòà_9"/><linearGradient id="Íîâûé_îáðàçåö_ãðàäèåíòà_9-4" x1="2458.08" y1="821.42" x2="2935.08" y2="821.42" xlink:href="#Íîâûé_îáðàçåö_ãðàäèåíòà_9"/><linearGradient id="Íîâûé_îáðàçåö_ãðàäèåíòà_9-5" x1="2446.69" y1="727.46" x2="2868.59" y2="727.46" xlink:href="#Íîâûé_îáðàçåö_ãðàäèåíòà_9"/><linearGradient id="Íîâûé_îáðàçåö_ãðàäèåíòà_9-6" x1="2547" y1="890.66" x2="2904.41" y2="890.66" xlink:href="#Íîâûé_îáðàçåö_ãðàäèåíòà_9"/><linearGradient id="Íîâûé_îáðàçåö_ãðàäèåíòà_9-7" x1="2300.29" y1="872.27" x2="2505.15" y2="872.27" xlink:href="#Íîâûé_îáðàçåö_ãðàäèåíòà_9"/><linearGradient id="Íîâûé_îáðàçåö_ãðàäèåíòà_7-2" x1="2814.18" y1="726.97" x2="2163.89" y2="1114.03" xlink:href="#Íîâûé_îáðàçåö_ãðàäèåíòà_7"/><linearGradient id="Íîâûé_îáðàçåö_ãðàäèåíòà_7-3" x1="2792.88" y1="691.18" x2="2142.59" y2="1078.24" xlink:href="#Íîâûé_îáðàçåö_ãðàäèåíòà_7"/><linearGradient id="Íîâûé_îáðàçåö_ãðàäèåíòà_7-4" x1="2840.34" y1="770.93" x2="2190.05" y2="1157.98" xlink:href="#Íîâûé_îáðàçåö_ãðàäèåíòà_7"/><linearGradient id="Íîâûé_îáðàçåö_ãðàäèåíòà_8-3" x1="2946.33" y1="1040.62" x2="2916.98" y2="1690.91" xlink:href="#Íîâûé_îáðàçåö_ãðàäèåíòà_8"/><linearGradient id="Íîâûé_îáðàçåö_ãðàäèåíòà_8-4" x1="2946.33" y1="1040.62" x2="2916.98" y2="1690.91" xlink:href="#Íîâûé_îáðàçåö_ãðàäèåíòà_8"/><linearGradient id="Íîâûé_îáðàçåö_ãðàäèåíòà_9-8" x1="3212.39" y1="1364.55" x2="3672.82" y2="1238.89" xlink:href="#Íîâûé_îáðàçåö_ãðàäèåíòà_9"/><linearGradient id="Íîâûé_îáðàçåö_ãðàäèåíòà_9-9" x1="3611.8" y1="907.36" x2="3309.13" y2="1188.02" xlink:href="#Íîâûé_îáðàçåö_ãðàäèåíòà_9"/><linearGradient id="Íîâûé_îáðàçåö_ãðàäèåíòà_9-10" x1="3256.73" y1="1527.03" x2="3717.16" y2="1401.38" xlink:href="#Íîâûé_îáðàçåö_ãðàäèåíòà_9"/><linearGradient id="Íîâûé_îáðàçåö_ãðàäèåíòà_9-11" x1="3763.95" y1="1071.43" x2="3461.27" y2="1352.1" xlink:href="#Íîâûé_îáðàçåö_ãðàäèåíòà_9"/><linearGradient id="Íîâûé_îáðàçåö_ãðàäèåíòà_11-2" x1="3005.9" y1="1605.82" x2="3459.7" y2="1605.82" xlink:href="#Íîâûé_îáðàçåö_ãðàäèåíòà_11"/><linearGradient id="Íîâûé_îáðàçåö_ãðàäèåíòà_9-12" x1="3304.96" y1="1703.75" x2="3765.39" y2="1578.09" xlink:href="#Íîâûé_îáðàçåö_ãðàäèåíòà_9"/><linearGradient id="Íîâûé_îáðàçåö_ãðàäèåíòà_9-13" x1="3809.67" y1="1120.74" x2="3506.99" y2="1401.4" xlink:href="#Íîâûé_îáðàçåö_ãðàäèåíòà_9"/><linearGradient id="Íîâûé_îáðàçåö_ãðàäèåíòà_7-5" x1="2858.58" y1="980.99" x2="2996.52" y2="980.99" xlink:href="#Íîâûé_îáðàçåö_ãðàäèåíòà_7"/><linearGradient id="Íîâûé_îáðàçåö_ãðàäèåíòà_9-14" x1="2980.62" y1="874.46" x2="2911.83" y2="1082.66" xlink:href="#Íîâûé_îáðàçåö_ãðàäèåíòà_9"/><linearGradient id="Íîâûé_îáðàçåö_ãðàäèåíòà_8-5" x1="3161.36" y1="1872.11" x2="2927.93" y2="1536.41" xlink:href="#Íîâûé_îáðàçåö_ãðàäèåíòà_8"/><linearGradient id="Íîâûé_îáðàçåö_ãðàäèåíòà_8-6" x1="2981.41" y1="1597.5" x2="3267.58" y2="1645.65" xlink:href="#Íîâûé_îáðàçåö_ãðàäèåíòà_8"/><linearGradient id="Íîâûé_îáðàçåö_ãðàäèåíòà_11-3" x1="2951.32" y1="1504.42" x2="3137.92" y2="1504.42" gradientTransform="translate(6089.24 3008.85) rotate(-180)" xlink:href="#Íîâûé_îáðàçåö_ãðàäèåíòà_11"/><linearGradient id="Íîâûé_îáðàçåö_ãðàäèåíòà_9-15" x1="2799.05" y1="1562.83" x2="2987.54" y2="1835.7" xlink:href="#Íîâûé_îáðàçåö_ãðàäèåíòà_9"/><linearGradient id="Íîâûé_îáðàçåö_ãðàäèåíòà_9-16" x1="2746.25" y1="1529.62" x2="2977.74" y2="1529.62" xlink:href="#Íîâûé_îáðàçåö_ãðàäèåíòà_9"/><linearGradient id="Íîâûé_îáðàçåö_ãðàäèåíòà_7-6" x1="2737.42" y1="1391.31" x2="2984.71" y2="1391.31" xlink:href="#Íîâûé_îáðàçåö_ãðàäèåíòà_7"/><linearGradient id="Íîâûé_îáðàçåö_ãðàäèåíòà_7-7" x1="2868.85" y1="1549.47" x2="2862.43" y2="1419.69" xlink:href="#Íîâûé_îáðàçåö_ãðàäèåíòà_7"/><linearGradient id="Íîâûé_îáðàçåö_ãðàäèåíòà_9-17" x1="2747.12" y1="1045.9" x2="2620.55" y2="1272.9" xlink:href="#Íîâûé_îáðàçåö_ãðàäèåíòà_9"/><linearGradient id="Íîâûé_îáðàçåö_ãðàäèåíòà_9-18" x1="2357.1" y1="1498.9" x2="2641.55" y2="1498.9" xlink:href="#Íîâûé_îáðàçåö_ãðàäèåíòà_9"/><linearGradient id="Íîâûé_îáðàçåö_ãðàäèåíòà_9-19" x1="2552.21" y1="937.22" x2="2425.63" y2="1164.22" xlink:href="#Íîâûé_îáðàçåö_ãðàäèåíòà_9"/><linearGradient id="Íîâûé_îáðàçåö_ãðàäèåíòà_9-20" x1="2057.62" y1="1437.61" x2="2239.23" y2="1437.61" xlink:href="#Íîâûé_îáðàçåö_ãðàäèåíòà_9"/><linearGradient id="Íîâûé_îáðàçåö_ãðàäèåíòà_9-21" x1="2453.58" y1="882.22" x2="2327" y2="1109.23" xlink:href="#Íîâûé_îáðàçåö_ãðàäèåíòà_9"/><linearGradient id="Íîâûé_îáðàçåö_ãðàäèåíòà_9-22" x1="2246.51" y1="1170.34" x2="2519.81" y2="1170.34" xlink:href="#Íîâûé_îáðàçåö_ãðàäèåíòà_9"/><linearGradient id="Íîâûé_îáðàçåö_ãðàäèåíòà_9-23" x1="1418.77" y1="1846.36" x2="3374.23" y2="1846.36" xlink:href="#Íîâûé_îáðàçåö_ãðàäèåíòà_9"/><linearGradient id="Íîâûé_îáðàçåö_ãðàäèåíòà_11-4" x1="2352.63" y1="1527.07" x2="2560.02" y2="1527.07" xlink:href="#Íîâûé_îáðàçåö_ãðàäèåíòà_11"/><linearGradient id="Íîâûé_îáðàçåö_ãðàäèåíòà_7-8" x1="1688.18" y1="811.73" x2="1697.81" y2="663.15" xlink:href="#Íîâûé_îáðàçåö_ãðàäèåíòà_7"/><linearGradient id="Íîâûé_îáðàçåö_ãðàäèåíòà_7-9" x1="1698.81" y1="585.66" x2="1624.05" y2="780.11" xlink:href="#Íîâûé_îáðàçåö_ãðàäèåíòà_7"/><linearGradient id="Íîâûé_îáðàçåö_ãðàäèåíòà_7-10" x1="1728.04" y1="596.9" x2="1653.29" y2="791.35" xlink:href="#Íîâûé_îáðàçåö_ãðàäèåíòà_7"/><linearGradient id="Íîâûé_îáðàçåö_ãðàäèåíòà_7-11" x1="2107.34" y1="1317.9" x2="1959.68" y2="1400.14" xlink:href="#Íîâûé_îáðàçåö_ãðàäèåíòà_7"/><linearGradient id="Íîâûé_îáðàçåö_ãðàäèåíòà_11-5" x1="2103.51" y1="1413.04" x2="1992.22" y2="1545.11" xlink:href="#Íîâûé_îáðàçåö_ãðàäèåíòà_11"/><linearGradient id="Íîâûé_îáðàçåö_ãðàäèåíòà_11-6" x1="2094.68" y1="1405.6" x2="1983.4" y2="1537.67" xlink:href="#Íîâûé_îáðàçåö_ãðàäèåíòà_11"/><linearGradient id="Íîâûé_îáðàçåö_ãðàäèåíòà_7-12" x1="2103.52" y1="1311.02" x2="1955.85" y2="1393.27" xlink:href="#Íîâûé_îáðàçåö_ãðàäèåíòà_7"/><linearGradient id="Íîâûé_îáðàçåö_ãðàäèåíòà_7-13" x1="2107.09" y1="1317.44" x2="1959.42" y2="1399.68" xlink:href="#Íîâûé_îáðàçåö_ãðàäèåíòà_7"/><linearGradient id="Íîâûé_îáðàçåö_ãðàäèåíòà_7-14" x1="1976.21" y1="1826.62" x2="2027.84" y2="1826.62" xlink:href="#Íîâûé_îáðàçåö_ãðàäèåíòà_7"/><linearGradient id="Íîâûé_îáðàçåö_ãðàäèåíòà_7-15" x1="2044.6" y1="1826.62" x2="2096.23" y2="1826.62" xlink:href="#Íîâûé_îáðàçåö_ãðàäèåíòà_7"/><linearGradient id="Íîâûé_îáðàçåö_ãðàäèåíòà_7-16" x1="2096.42" y1="1298.28" x2="1948.75" y2="1380.53" xlink:href="#Íîâûé_îáðàçåö_ãðàäèåíòà_7"/></defs><g class="cls-1"><g id="Ñëîé_2" data-name="Ñëîé 2"><rect class="cls-2" width="3600" height="2000"/><polygon class="cls-3" points="1800 2000 3600 2000 3600 0 2468 0 1800 2000"/><polygon class="cls-3" points="873 2000 0 1379 0 2000 873 2000"/></g><g id="Layer_1" data-name="Layer 1"><path class="cls-4" d="M1601,1178.81l-77.63,289.85-43.6,142.21s-3.83,77.82-3.83,79.5,12.7,50.23,12.7,50.23,27.64,36.13,27.82,36.55,27.46,22.83,29.14,23.77,53.67,29.13,55.4,29.13,39.09,10.21,39.09,10.21l140.8,6.1h144.9s23.59-569.8,23.59-571.3,49.61-124.49,50-126-49.51-38.35-49.51-38.35l-58.94-89.63H1869.7L1828.87,1053,1780,1090l-49.21,27.72-62.14,25.39-50.4,14.44-15.44,9.25Z"/><path class="cls-5" d="M3059.14,1089s81.24,135.67,89.88,226.35c7.13,74.7-5.48,73.44-5.48,73.44s-39.46,23.56-113.44-139.76l-4.39-19.18s65.22,138.11,102.49,148-98.1-268.54-98.1-268.54l20.79-30.69Z"/><path class="cls-5" d="M3063.57,1081.49a14.44,14.44,0,1,1-14.44-14.43A14.44,14.44,0,0,1,3063.57,1081.49Z"/><path class="cls-6" d="M2080.65,1138.65l-.07-4.47-109.38,5.57c-7.41-12.87-77.69-121-78.87-122.38a10.39,10.39,0,0,0-4.52-3v0l-.48-.11a12.76,12.76,0,0,0-1.71-.38c-11-2.43-61.78-13.81-114.19-28.24-8.07-2.22-16.3-4.89-25-7.72-35.06-11.39-71.31-23.17-101.6-7.1-20.18,10.71-34.75,32.38-44.53,66.26-24,83.1-9.84,129.21-4.85,141.57-12.49,48.6-72.62,284.25-97.58,360.5l-.21.63c-18.42,56.28-46.25,141.32-5.72,211.21,28.49,49.11,87.26,83.15,174.67,101.17l.43.09h258.28l163.56-142.68Zm-475,18.47c-.46-35.85-1.68-131.09,46.46-155.75,43.13-22.1,72.62-11.48,106.77.81,28.63,10.3,58.71,26.72,102.75,19.93-11.1,7.09-26.26,18.85-46.33,34.59-12.92,10.13-26.28,20.61-38.22,29.24-35.69,25.82-122.07,54.31-124.77,55.19-9,2.68-33.56,10.54-46.62,19.88C1605.68,1159.85,1605.66,1158.57,1605.65,1157.12Zm-1.19,25.79c4.58,2.21,11.27,3.29,20.31,3.29q5.36,0,11.82-.5a270.44,270.44,0,0,0,28-3.78l.26-.06,3.77-1c-2.56,10.23-8.63,34.4-16.67,66.21-28.73-19.2-46.79-35.49-53.31-41.71C1601.15,1195.76,1603.12,1188.11,1604.46,1182.91Zm172.65,37.5c10.6,5.18,22.58,10.67,35.79,16.18.9,26,2.07,54.72,3.6,84.71a589.42,589.42,0,0,1-70-23.91c2.75-32.67,5.27-63.6,7.31-89C1761,1212.3,1768.77,1216.33,1777.11,1220.41Zm-22.82-18.73c1.93-24,3.35-42.32,4-51.24a517.26,517.26,0,0,0,46.9-22.62c1.36,1.23,3,2.68,5,4.32.32,20.55,1,55.23,2.43,97.66-12-5.07-22.93-10.09-32.68-14.85C1770.72,1210.42,1762.15,1206,1754.29,1201.68Zm-5.92-3.27c-21.24-11.88-36.51-22.06-44.6-27.73,16.09-5.17,32.33-11.07,48.17-17.57C1751.22,1162.4,1750,1178.26,1748.37,1198.41Zm-.54,6.75c-2,25.38-4.57,56.61-7.36,89.71-15.48-6.61-29.45-13.37-41.8-19.91-15.44-8.18-29.19-16.41-41.26-24.26,9.38-37.09,16.17-64.18,18-71.62,6.91-1.87,13.92-3.9,21-6.08A515,515,0,0,0,1747.83,1205.16Zm-92,51.86c11.71,7.55,25,15.44,39.72,23.26q21.64,11.48,44.38,21.12c-3.26,38.58-6.82,79.31-10.28,116-16.17-9-30.9-18-44-26.66-20.51-13.46-38.54-26.78-53.86-39C1640.45,1317.69,1648.78,1284.85,1655.82,1257Zm26.23,138.75q23.1,15.17,47,28.38c-4.33,45.44-8.45,83.86-11.55,103-16.69-11-32.1-21.85-46-32.09-24.29-18-45.7-35.38-63.58-50.74,7.25-27.9,14.81-57.3,22.15-86C1645,1370.1,1662.4,1382.87,1682.05,1395.77Zm-14.32,104.15c14.59,10.79,30.89,22.26,48.61,33.86-4.91,29.86-10.14,77-6.21,128.28-27-16.94-51.13-34.16-71.8-50.08-23.39-18-44-35.61-61.4-51.34.12-.43.24-.86.35-1.29,7.43-26.55,17.74-65.46,28.92-108.41C1623.69,1465.89,1644.39,1482.65,1667.73,1499.92Zm-33.27,116.86c25.14,19.37,50.67,37.11,76.34,53.08,4,42.46,14.57,87.19,37,126.8-78.42-27.8-134.7-59.75-172.68-86.24q-6-4.2-11.61-8.32c-6.2-45.07.6-92.65,11.67-134.79C1592.09,1582.58,1612,1599.48,1634.46,1616.78Zm87.53-79.33c35.78,23.08,77.12,46.5,122.1,66.2,7.17,39.27,15.34,68.59,24.49,87.74,10.36,21.69,19.84,39.89,28.41,55.15-67.29-18.34-128.77-48.67-180.36-80.43C1712.2,1615.29,1717.13,1568,1722,1537.45Zm1.1-6.63a2.56,2.56,0,0,1,.05-.27c3.09-18,7.3-56.77,11.74-103.18a686,686,0,0,0,79.58,36.89c4.08,1.58,8.18,3.1,12.27,4.59q6.88,74.82,16,127.49C1798.67,1576.72,1758.14,1553.57,1723.09,1530.82Zm12.43-110.17c3.48-36.79,7.08-77.81,10.38-116.76a590,590,0,0,0,70.94,24c.52,9.88,1.08,19.9,1.67,30q3.33,56.31,7.59,104A684.2,684.2,0,0,1,1735.52,1420.65Zm83.69-181.47a654.32,654.32,0,0,0,119.52,35.76c7.11,19.37,14.31,39.67,21.41,60.64.8,2.35,1.6,4.73,2.4,7.12a618.37,618.37,0,0,1-139.69-19.7C1821.32,1293.34,1820.13,1265,1819.21,1239.18Zm-.23-6.76c-1.4-40.41-2.12-74-2.49-95.35a257.66,257.66,0,0,0,28.44,18.42,392.14,392.14,0,0,0,57.3,26.06c10.53,25.32,22.13,54.61,34,86.61A649.62,649.62,0,0,1,1819,1232.42Zm-2.62-103.35c0-2.85-.08-5.37-.11-7.55,16.7-9.92,31.55-20.5,43.52-31.53,6.86,11.16,21.3,41.25,39.17,83.71C1856,1157.22,1829.8,1139.72,1816.36,1129.07Zm-3.31-17.33s-77.86,43.74-150.48,60.53c-23.1,4.52-51.16,5.87-55.46.69.59-1.1,4.15-5.84,23.73-13.8,12.19-5,24.23-8.55,24.35-8.59l.12,0c3.67-1.19,90.22-29.6,127.55-56.59,12.1-8.75,25.54-19.29,38.53-29.48,21.68-17,55.61-45.85,63.52-40.58,0,0,3.94,5.07-9.71,31.46C1865.73,1073.65,1843.49,1093.28,1813.05,1111.74ZM1607.4,1039.1c9.2-31.86,22.58-52.07,40.9-61.78,27.51-14.6,62.25-3.32,95.84,7.59,8.8,2.86,17.1,5.56,25.34,7.83,35.17,9.68,69.61,18,91.87,23.17-42.67,6.86-71-9-100.38-19.53-34-12.25-66.15-23.82-111.67-.5-51.55,26.41-50.29,124.42-49.82,161.32,0,3.69.09,7.22,0,9.47l-.1.12C1594.28,1147.73,1588.25,1105.41,1607.4,1039.1Zm-10.51,173.09c8.39,7.75,26.44,23.35,53.47,41.26-7,27.53-15.23,60.13-23.9,94.09-28.59-23.15-46.74-41.5-52.57-47.6C1583,1265.59,1591.06,1234.66,1596.89,1212.19Zm-24.84,94.71a613.94,613.94,0,0,0,52.73,47.21c-7.29,28.52-14.82,57.81-22.06,85.69-29-25.25-47.75-44.22-53-49.65C1557.34,1362.12,1565,1333.6,1572.05,1306.9Zm-24.21,90.15c7.78,7.9,26.29,26.16,53.15,49.41-11.22,43.16-21.61,82.43-29.16,109.52-27.85-25.57-46.5-45.6-53.65-53.52C1527,1472.54,1537.37,1435.43,1547.84,1397.05Zm-42,145.38.2-.64c3-9.07,6.36-20,10.06-32.42,8.86,9.65,27.43,29.16,53.86,53.28-13.36,49.6-17.78,94.68-13.23,134.42-44.76-34.13-66.9-62.68-73.23-71.55C1488.67,1595,1498.12,1566.09,1505.87,1542.43Zm-6.46,204.19c-20.37-35.13-22.43-74.79-17.21-112.47,10,13,33.27,40,75.69,71.5q.9,6,2.06,11.76c10.5,51.64,37.73,91.86,81,119.82C1571.15,1818.68,1523.57,1788.28,1499.41,1746.62Zm168.52,97q-4.07-.84-8-1.73l.27-.52c-58.94-31.24-86.21-78.9-95.34-130.61q3.11,2.23,6.34,4.5c40,27.94,86.45,52.69,138,73.57q21.16,8.57,43.5,16.23a221.77,221.77,0,0,0,30.15,38.56Zm123.7,0a213.32,213.32,0,0,1-29.56-35.38,1087.47,1087.47,0,0,0,136.56,35.38Zm132.31-1.62c-64.14-11.11-119.61-25.84-167.21-42.17-23.54-38.83-34.85-83.34-39.35-125.89q27.09,16.51,54.29,30.34c43.41,22,86.84,38.72,129.62,49.85,23.92,41.37,40.15,58.85,48,65.75Zm30.08-26.24c-6.51-5.62-21.6-21.18-44.32-59.52q16.82,4.1,33.47,7l1.07-6.07c-13.15-2.31-26.11-5.17-38.89-8.44-9.26-16.14-19.68-35.87-31.21-60-9-18.93-16.68-47.55-23.13-82.09,36.31,15.47,74.87,28.42,114.72,36.75l1.25-6c-40.78-8.52-80.24-21.94-117.29-38-6.72-37.78-12.11-82-16.42-128.21a601,601,0,0,0,154,32.69l.46-6.15c-56.69-4.26-108.85-16.91-155.14-33.43-4.06-44.7-7.12-91-9.44-134.68a624.7,624.7,0,0,0,141.42,19.33c36.36,109.46,77.9,261.08,80.12,387.64Zm96.77-84.42c-3.23-125.46-43.79-274-79.63-382.24,2.92,0,5.84.07,8.76.07,5,0,10-.05,15-.17l-.14-6.16q-13,.29-25.68.06c-1-3.12-2.08-6.21-3.12-9.26-6.67-19.71-13.45-38.9-20.19-57.32,15.7,2.89,32,5.25,48.76,6.9l.61-6.13c-17.9-1.77-35.2-4.35-51.84-7.5-11.47-31.1-22.75-59.88-33.13-85.14a604.8,604.8,0,0,0,90.69,23.47l1.1-6.06c-37.77-6.89-69.16-15.75-95-25.11-19.1-46-34.77-79.12-42.24-91.54,8.19-8.23,14.74-16.69,19.19-25.3a132.35,132.35,0,0,0,9.37-21.87c34.11,42.07,71.29,107.63,71.69,108.32l1.31,2.32,105.75-5.38,8.11,562.4Z"/><path class="cls-7" d="M1991.87,845S1943,773.28,1911,743.47s-94-52.05-108.12-33.51,27.48,39.63,43,46.45,79.7,39.73,151.26,141.41S1991.87,845,1991.87,845Z"/><path class="cls-8" d="M2028.1,925.47c.25-2.19-104.61-135.44-274.3-96.24a24.57,24.57,0,0,0-14.25,9c-4.89,6.54-5.83,15.24,21.73,16.78,45.09,2.51,149.54-6.41,239.41,71.14S2028.1,925.47,2028.1,925.47Z"/><path class="cls-9" d="M2027.68,937.52c-2.51.7-67.88-62-176.57-49.43-88,10.19-49,29.92-30.12,28.13s111.36-9.06,183.14,20.83S2027.68,937.52,2027.68,937.52Z"/><path class="cls-6" d="M2117.32,918.33s9.86-240.59,214.83-321.7,340.89,116.18,365,321.7l-60.29,25.76L2627,918.33s4.38-316.22-204.15-310.74c-206.17,5.42-246.35,315.68-246.35,315.68s-32.88,83.3-35.08,75.63S2117.32,918.33,2117.32,918.33Z"/><path class="cls-10" d="M3035.81,1070.89H2819.29a13.32,13.32,0,0,0-13.32,13.32h0a13.32,13.32,0,0,0,13.32,13.33h216.52a13.32,13.32,0,0,0,13.32-13.33h0A13.32,13.32,0,0,0,3035.81,1070.89Z"/><path class="cls-11" d="M2118.18,631.44s-55.94-108.36-145-71.78c-87.93,39.26-48.08,154.51-48.08,154.51s138.82,357.38,185.36,432.67c44.61,72.16,122,37,128.32,33.94.28-.13.56-.26.85-.37,6.61-2.5,85.42-34.23,64-116.3C2281.15,978.47,2118.18,631.44,2118.18,631.44Z"/><path class="cls-12" d="M2377,842.82s18.09,11.18,18.6,10.62,5.22-2.11,5.17-2.79,2.48-12.07,2.48-12.07l-13.9-13.3L2377,842.82Z"/><path class="cls-12" d="M2519.11,795.18s-21.7,6.86-25.06,10.31-4.78,11.13-4.78,11.13l4.84,5.7Z"/><path class="cls-6" d="M2040.49,594.07c-49.31,42.33-63.14,107.26-66.81,147.15-1.24,13.53,15.34,21,24.64,11.08,27.41-29.21,66.82-82.63,65.78-147.61A14.3,14.3,0,0,0,2040.49,594.07Z"/><path class="cls-13" d="M2401.91,844.77c-3.41.43-10.7-.07-18.33-11.28l5.78-8.21,13.9,13.3S2402.57,841.7,2401.91,844.77Z"/><path class="cls-14" d="M1913.78,1681.79s210.52-149.18,148.67-211.1c0,0-6.13-25.52-85.14,31.38,0,0-36.72-.38-25.56-39.32S2037,1384,2013.7,1339s-61.47,8.7-89.7,11.75,35.28-145.72,7.07-173.6-57.93,29.22-79.24,29.81-16.63-196.37-118.31-194.07S1712.46,1117,1741.81,1173s-52.37,2.5-79.67,52,147,61.47,115,107.81-67.78,1.53-89.35,36.92c-34.87,57.2,143.73,51.6,125.65,93-14.42,33-64.23-8.88-79.29,15.31S1786.48,1630.26,1913.78,1681.79Z"/><path class="cls-15" d="M2066.48,1475.36c-.5-.68-1-1.34-1.59-2-5.49,7.21-11.86,15-19.12,22.79-26.67,28.81-71,64.86-131.17,73.71a865.62,865.62,0,0,0-18.2-105.25c39.93-72.76,81.78-106.75,109.86-122.45,2.43-1.36,4.8-2.6,7.11-3.75-.4-.75-.81-1.48-1.22-2.17-2.24,1.12-4.55,2.33-6.91,3.65-28.1,15.67-69.81,49.38-109.68,121.11,0-.15-.07-.31-.11-.47-9.07-38.33-20.89-79-35.31-121.66a591.58,591.58,0,0,1,20.91-76.71c9.75-28,24.65-62.88,45-89.09a21.69,21.69,0,0,0-2.16-1.24c-20.42,26.46-35.36,61.4-45.14,89.51a603.52,603.52,0,0,0-20.16,72.85q-16.65-48.72-37.74-100.67c-39.17-96.44-80.62-178-102.61-219.33-.88.14-1.73.29-2.57.45,21.86,41.08,63.52,122.89,102.89,219.81,6.62,16.3,13.34,33.46,20,51.28a598.22,598.22,0,0,0-66.85-30.84c-28.37-11.1-67.45-23.89-109.33-30.24-.06.12-.13.24-.2.36-.36.66-.69,1.32-1,2,41.95,6.26,81.15,19.09,109.56,30.2,38.53,15.07,65.51,30.07,69.13,32.13,14.7,39.54,29,82.23,41.18,125.93-53.26-25.87-148.36-36.85-195.61-40.89-.35.82-.66,1.62-.92,2.41,47.42,4,144.67,15.15,197.43,41.69,17.15,62.21,29.81,126.32,32.83,186.12-49.13-8.27-97.35-47.74-129.29-79.59a594,594,0,0,1-46.19-52.1,15,15,0,0,0-2,1.49,598.68,598.68,0,0,0,46.4,52.33c32.32,32.24,81.22,72.22,131.2,80.42a450,450,0,0,1-2.31,74.17l1.2.5,1.35-1c3.85-32.41,3.75-68.67-.28-108.49q5.89-.86,11.71-2.07a206.49,206.49,0,0,0,65.32-26.21,263.76,263.76,0,0,0,55.76-46.27C2054.77,1490.08,2061,1482.47,2066.48,1475.36Z"/><path class="cls-16" d="M1582.48,1286.91c45.15-24.17,62,47.25,65.61,66.64a357,357,0,0,1,51.58,11.33c-14.13-20.29-38.68-26.9-43.25-42-5.12-17,1.83-37.64,32-20.6,23.93,13.5,19.9,49.94,17.19,64.5a304.2,304.2,0,0,1,61.44,27.2c-12.56-25.51-40-36.07-43.13-53.77-3.44-19.38,6.91-41.26,38-18.55,25.67,18.77,14.57,61.1,9.95,75.22,13,8.09,20.07,14.15,20.81,14.81a516.11,516.11,0,0,1,39.12,37.09c-10.49-22.7-31.9-36-32.47-52.42-.69-19.66,12.62-39.88,40.2-13,21.81,21.22,7.25,59.11.21,74a479.25,479.25,0,0,1,58.46,79.41c-1.46-23.07-20.64-54.92-14.42-76.41,4.09-14.1,14.1-17.51,21.85-17.88a21.82,21.82,0,0,1,17.32,7.34c25,27.86-10.51,77.38-21.91,91.82a455.53,455.53,0,0,1,38.76,88.26c-.65-11.94-1.72-30-2.7-39.29-1.55-14.71,4.11-35.35,15.6-43.72.48-.35,1-.67,1.43-1,9.12-5.78,21.07-3.45,28.29,4.57,28.25,31.37-27.31,79.3-39.63,89.27.06.18.11.37.17.55,19,65.81,16.14,112.24,16,114.18l-7.19-.48c0-.45,2.72-44.65-14.25-106.4-67.46-7.33-86.17-45.91-77-60.3,9.44-14.86,35.67-20.31,47.67,7.55,7,16.16,18,31.52,26.12,41.58a446.41,446.41,0,0,0-39-90.23c-88.1,20.53-95.83-35-77.87-48,18.18-13.16,32.8-5.14,47.17,15.91a107.47,107.47,0,0,0,28.22,27.81,472.6,472.6,0,0,0-57.08-78.14c-10.68,12.06-40.22,41-68.59,29.09-35.47-14.92-22-35.06-3.68-42.1,16.9-6.47,40.26,11.85,68.83,9.21a510.8,510.8,0,0,0-44.38-42.8c-.26-.23-14.35-12.4-41.08-25.74-9.19,13.44-34.72,45.55-64.23,37.33-37.07-10.31-26.31-32-9-41.29,15.47-8.31,39.94,5.79,67,.93a332.12,332.12,0,0,0-92.48-27.48c-9.64,13.87-34.76,44.58-63.69,36.52-37.06-10.32-26.3-32-9-41.29,15.69-8.42,40.63,6.2,68.11.73l.1-.76c-9.56-4.09-29.86-12.7-39.78-16.32-13.25-4.84-28.12-18.46-29.8-32A23,23,0,0,1,1582.48,1286.91Z"/><path class="cls-17" d="M1962.57,1738.32s-35.92-156.42-214.76-245.26l7.36,58.52-27.82-65.2s-106-47.24-188.72-60.4c0,0,105.59,159.73,139.32,187.17l58.22,12.59-47.64,22.53s56.79,90.27,146,127.1S1962.57,1738.32,1962.57,1738.32Z"/><path class="cls-18" d="M1527.41,1682.89c23.36,50.11,54.21,86.22,88.74,111.88,20.06-12.22,44.22-26.3,44.22-26.3L1640.76,1811c140.76,82,324.29,17.1,324.29,17.1-49.52-111.06-111.68-166.24-173.47-189.84-10.84,12.86-26.75,32.18-26.75,32.18l6.53-38.82c-31-8.56-61.56-9.78-90-6.76-3.27,20.2-7.51,43-7.51,43l-19.7-38.81C1580.89,1644,1527.41,1682.89,1527.41,1682.89Z"/><path class="cls-19" d="M1791.58,1638.25c-10.84,12.86-26.75,32.18-26.75,32.18l6.53-38.82c-31-8.56-61.56-9.78-90-6.76-3.27,20.2-7.51,43-7.51,43l-19.7-38.81c-73.26,14.92-126.74,53.81-126.74,53.81,156.3,110.83,437.64,145.2,437.64,145.2C1915.53,1717,1853.37,1661.85,1791.58,1638.25Z"/><path class="cls-6" d="M2099.29,728.25c-49.31,42.33-63.14,107.26-66.81,147.14-1.25,13.54,15.34,21,24.64,11.09,27.41-29.21,66.82-82.63,65.78-147.61A14.31,14.31,0,0,0,2099.29,728.25Z"/><path class="cls-6" d="M2169,875.87c-49.31,42.33-63.14,107.26-66.81,147.14-1.24,13.54,15.34,21,24.64,11.09,27.41-29.21,66.82-82.63,65.78-147.61A14.3,14.3,0,0,0,2169,875.87Z"/><path class="cls-20" d="M2663.88,868.36c-5.4,4.48-10.36,13.81-15.62,23.7-7.82,14.71-16.68,31.39-32.68,45.1-17.71,15.17-38.48,21.47-55.18,26.54-4.07,1.24-8,2.43-11.67,3.68l-90.65-26.17a150.87,150.87,0,0,1,55.15-39.75,268.6,268.6,0,0,1,25.62-8.77c11.61-3.53,22.57-6.85,28.43-11.88,5.35-4.58,10.26-13.82,15.45-23.59,7.61-14.31,17.08-32.12,33.72-46,22.48-18.67,49.59-23.39,71.38-27.19,15.24-2.65,29.64-5.16,36.75-11.29,3.84-3.3,7.94-9.71,12.28-16.49,2.74-4.28,5.57-8.7,8.87-13.28a160.71,160.71,0,0,1,58.75-49.54l8.89,30.49,2.49-35.6a158.06,158.06,0,0,1,47.84-11.24c2.64-.19,5.1-.31,7.48-.42,3.82-.18,39.24-4.6,50.25,4.29h0a36.78,36.78,0,0,1,8.16,48l-33.23-6.63,21.38,18.29c-.9.54-1.83,1.07-2.8,1.55a77.3,77.3,0,0,1-8.65,3.62c-11.84,4.11-22.81,4.63-31.63,5-2,.1-3.87.18-5.55.31a87.71,87.71,0,0,0-63.19,35.29c-2.1,2.91-4.27,6.29-6.56,9.87a216.07,216.07,0,0,1-12.62,18.23L2748,811l29.11,14.27c-1.31,1.27-2.66,2.52-4.08,3.75-22.63,19.48-50.25,24.3-72.44,28.16C2685.44,859.83,2671.14,862.32,2663.88,868.36Z"/><path class="cls-21" d="M2811.93,735.33c-98,77.44-69.55,71.8-157.32,103.52-66.79,24.14-70.36,102.77-126.42,122.6l20.54,5.93c3.67-1.25,7.6-2.44,11.67-3.68,16.7-5.07,37.47-11.37,55.18-26.54,16-13.71,24.86-30.39,32.68-45.1,5.26-9.89,10.22-19.22,15.62-23.7,7.26-6,21.56-8.53,36.69-11.17,22.19-3.86,49.81-8.68,72.44-28.16,1.42-1.23,2.77-2.48,4.08-3.75L2748,811l38.76,3.53a216.07,216.07,0,0,0,12.62-18.23c2.29-3.58,4.46-7,6.56-9.87a87.71,87.71,0,0,1,63.19-35.29c1.68-.13,3.56-.21,5.55-.31,8.82-.41,19.79-.93,31.63-5a77.3,77.3,0,0,0,8.65-3.62c1-.48,1.9-1,2.8-1.55l-21.38-18.29,33.23,6.63a37,37,0,0,0,2.47-34.05C2902,690.43,2860.85,696.69,2811.93,735.33Z"/><path class="cls-22" d="M2751.58,667.58c-2.67,11.88-5.93,26.33-12.91,40.71-21.94,5.18-64.78,15.3-59.94,14.28,4.55-1,33.54.58,50.49,1.59-17.21,24-41.68,38.08-61.81,49.63-15.56,8.93-30.25,17.36-35.82,26.88-4.14,7.08-5.86,19.3-7.69,32.23-2.72,19.27-5.8,41.11-17.9,62.54-13.38,23.71-33.67,38.91-50,51.12-6.64,5-12.91,9.68-18,14.32-.92.85-1.83,1.74-2.72,2.63l-88.65-25.58a174.4,174.4,0,0,1,32.75-40.87,315.06,315.06,0,0,1,24.63-19.85c11.33-8.49,22-16.51,26.47-24.37,4-7.16,5.74-19.25,7.55-32,2.64-18.74,5.93-42.07,18.69-63.88,17.23-29.45,45.1-45.45,67.51-58.3,15.67-9,30.47-17.48,35.83-27,2.89-5.16,4.84-13.82,6.9-23,1.3-5.78,2.65-11.77,4.45-18.11,13.91-49,48.54-91.2,93.63-114.7l14.2,11.88-3.83-16.87c2.53-1.12,4.93-2.13,7.25-3.1,4.12-1.72,41.24-20.69,56.86-15.33h0c29.37,10.08,38.78,47.35,17.27,69.74a89.68,89.68,0,0,1-8,7.42c-11.36,9.24-23.19,14.18-32.7,18.15-2.15.89-4.18,1.74-6,2.55-26.24,11.76-47.43,36.25-55.28,63.92C2753.69,658.16,2752.67,662.74,2751.58,667.58Z"/><path class="cls-21" d="M2731.83,600.09c-63.89,96.26-31.27,99.23-87,145S2578,782.58,2570.44,850c-3.54,31.51-39,69.83-75.85,101.73l40.75,11.76c.89-.89,1.8-1.78,2.72-2.63,5.06-4.64,11.33-9.34,18-14.32,16.3-12.21,36.59-27.41,50-51.12,12.1-21.43,15.18-43.27,17.9-62.54,1.83-12.93,3.55-25.15,7.69-32.23,5.57-9.52,20.26-17.95,35.82-26.88,20.13-11.55,44.6-25.6,61.81-49.63-16.95-1-45.94-2.55-50.49-1.59-4.84,1,38-9.1,59.94-14.28,7-14.38,10.24-28.83,12.91-40.71,1.09-4.84,2.11-9.42,3.26-13.45,7.85-27.67,29-52.16,55.29-63.92,1.79-.81,3.82-1.66,6-2.55,9.51-4,21.34-8.91,32.7-18.15a89.68,89.68,0,0,0,8-7.42,42,42,0,0,0,9.09-43.89C2824.73,525,2768.52,544.81,2731.83,600.09Z"/><path class="cls-23" d="M2675,931.61c-4.77,2.53-10,8.78-15.44,15.4a181.27,181.27,0,0,1-15,16.53L2547,935.36c3.13-.89,6.29-1.67,9.48-2.28a205.41,205.41,0,0,1,20.65-2.62c9.28-.85,18-1.64,23.25-4.51,4.74-2.62,9.87-8.8,15.3-15.35,8-9.59,17.84-21.51,32.52-29.33,19.82-10.55,41-9.89,58-9.36,11.88.38,23.1.73,29.41-2.77,3.4-1.89,7.48-6.07,11.81-10.5,2.72-2.8,5.54-5.68,8.74-8.62a124.18,124.18,0,0,1,99-31.22c2,.27,3.89.56,5.69.85,2.91.46,30.25,2.64,37.15,11h0c13,15.79,5.38,39.92-14.4,45a58.34,58.34,0,0,1-7.08,1.38c-9.55,1.25-17.88-.06-24.58-1.12-1.51-.24-2.94-.47-4.23-.64a67.43,67.43,0,0,0-53,16.73c-2,1.86-4.19,4.07-6.47,6.4l-2.22,2.27-24.35-6.15L2776,910.1a79.58,79.58,0,0,1-12.74,8.89c-20.06,11.15-41.59,10.47-58.89,9.93C2692.56,928.55,2681.41,928.19,2675,931.61Z"/><path class="cls-21" d="M2795.59,859.63c-71.56,33.5-81.14,40.33-116.74,46-25.19,4-54.7,31.77-69.8,47.68l35.56,10.27a181.27,181.27,0,0,0,15-16.53c5.49-6.62,10.67-12.87,15.44-15.4,6.4-3.42,17.55-3.06,29.35-2.69,17.3.54,38.83,1.22,58.89-9.93A79.58,79.58,0,0,0,2776,910.1l-14.38-15.51,24.35,6.15,2.22-2.27c2.28-2.33,4.43-4.54,6.47-6.4a67.43,67.43,0,0,1,53-16.73c1.29.17,2.72.4,4.23.64,6.7,1.06,15,2.37,24.58,1.12a58.34,58.34,0,0,0,7.08-1.38,27.6,27.6,0,0,0,20.12-20.92C2871.49,846.82,2830.83,843.14,2795.59,859.63Z"/><path class="cls-24" d="M2489.59,807.26s-49.52,46.76-69.27,41.65c0,0-5.34-.4-15.67-3.68,0,0-10.5,8.46-26.76-7.84l-11-2.41s-13.91-3.27-31.32,16.37c-3.94,5.14-7.46,9.92-10.61,14.37-.32.48-.64.94-1,1.37-37.17,53.08-19.55,57.3-19.37,57.11l96.12,13.08,3.38-14,4.47-22.82s63.08-19.92,96.56-75.62Z"/><path class="cls-5" d="M2400.73,937.28c.9-2.92,1.67-5.87,2.45-8.83s1.44-5.93,2.11-8.91,1.26-6,1.83-9,1.08-6,1.54-9a177,177,0,0,0,1.79-18.25c.17-6.1.09-12.3-1.41-18.25a54.54,54.54,0,0,1,.87,9.09c.07,3,0,6.09-.2,9.12s-.45,6.07-.79,9.1-.76,6-1.21,9c-.86,6-2,12-3.14,18q-.87,4.49-1.85,9C2402.1,931.33,2401.42,934.31,2400.73,937.28Z"/><path class="cls-25" d="M2776.08,779.68s-43.29-3.84-67.41,20.82-70.15,92.62-83.3,163.87-179-36.35-179-36.35,62.84-197.3,190.72-222.88c0,0,33.8-7.12,60.65,4.93s44.94,26.31,74,17.54C2771.7,727.61,2767.13,757.75,2776.08,779.68Z"/><path class="cls-5" d="M2776.08,779.68s33.07-1.1,48.78-19.73c0,0,5.84-49.69-2.19-51.15s-13.84,2.55-21.17,5.11-29,5.52-29.8,13.7C2771.7,727.61,2767.86,754.47,2776.08,779.68Z"/><path class="cls-26" d="M2681.6,740.62c34.78,3.8,68.12,6.16,89,10.24a138,138,0,0,1,1.07-23.25c-29,8.77-47.13-5.48-74-17.54s-60.65-4.93-60.65-4.93C2509.18,730.72,2446.34,928,2446.34,928s21.53,14,49.7,28.5C2545.23,777.39,2636,735.64,2681.6,740.62Z"/><path class="cls-27" d="M2776.08,779.68a72.16,72.16,0,0,1-4.25-16c-11.87-2-46.39-5.57-75.1,15.63-35,25.83-94,50-148.21,200.39,37,12.88,71.17,15.47,76.85-15.3,13.15-71.25,59.19-139.21,83.3-163.87S2776.08,779.68,2776.08,779.68Z"/><rect class="cls-28" x="2798.86" y="1092.1" width="257.39" height="729.15" rx="9.83"/><path class="cls-29" d="M3014.79,1388h0a20.19,20.19,0,0,1-20.19-20.19v-231a20.19,20.19,0,0,1,20.19-20.19h0a20.19,20.19,0,0,1,20.2,20.19v231A20.19,20.19,0,0,1,3014.79,1388Z"/><path class="cls-30" d="M2865.33,1092.1h-56.64a9.83,9.83,0,0,0-9.83,9.83v709.5a9.83,9.83,0,0,0,9.83,9.82h237.73a9.82,9.82,0,0,0,9.82-9.82V1458.1C2918.13,1463.32,2876.71,1254.46,2865.33,1092.1Z"/><path class="cls-31" d="M3112,1263.85c-34.41,13.73-59.74,33-78.21,55.12,7.41,13.88,15.91,30.58,15.91,30.58l-27.7-14.73c-60.19,91.06-23.74,216.29-23.74,216.29,76.17-28.91,115.45-68.4,133.58-108.84-8.19-7.74-20.51-19.12-20.51-19.12L3137,1429a161.23,161.23,0,0,0,7.93-60c-13.38-3-28.5-6.66-28.5-6.66l26.71-11.7C3135.94,1301.1,3112,1263.85,3112,1263.85Z"/><path class="cls-32" d="M3131.79,1442.27c-8.19-7.74-20.51-19.12-20.51-19.12L3137,1429a161.23,161.23,0,0,0,7.93-60c-13.38-3-28.5-6.66-28.5-6.66l26.71-11.7c-7.2-49.58-31.19-86.83-31.19-86.83-80.08,100.36-113.74,287.26-113.74,287.26C3074.38,1522.2,3113.66,1482.71,3131.79,1442.27Z"/><path class="cls-33" d="M3407.4,1343.24c-77.15-11.69-143.68-3.64-200.81,16.91-1.3,33.11-3.63,72.5-3.63,72.5l-34.66-56.25c-206.32,101.39-273.4,367.77-273.4,367.77,169.2,28.55,282.61-1.41,358.61-55.59-6.64-22.79-16.92-56.57-16.92-56.57l40.52,38c34.29-29.75,59.58-64.71,78.24-100.5-21.18-19.63-44.71-42.45-44.71-42.45l61,7.17C3411.33,1436.47,3407.4,1343.24,3407.4,1343.24Z"/><path class="cls-34" d="M3253.51,1688.58c-6.64-22.79-16.92-56.57-16.92-56.57l40.52,38c34.29-29.75,59.58-64.71,78.24-100.5-21.18-19.63-44.71-42.45-44.71-42.45l61,7.17c39.69-97.76,35.76-191,35.76-191-252.35,97.12-512.5,400.93-512.5,400.93C3064.1,1772.72,3177.51,1742.76,3253.51,1688.58Z"/><path class="cls-35" d="M3457.61,1508.37c-26.39-34.24-64.05,14.92-73.59,28.58a301.36,301.36,0,0,0-43.62-9.14c17.9-10.72,39.09-7.31,47.84-17.38,9.82-11.3,11.63-29.61-17.51-27-23.09,2.11-32.61,31.55-35.57,43.7a256.86,256.86,0,0,0-56.71-.34c18.5-15.29,43.28-13.91,51.83-26.46,9.35-13.72,9-34.15-22.82-27.42-26.26,5.55-32.37,42-33.71,54.45a141.48,141.48,0,0,0-21.14,4.2,438.63,438.63,0,0,0-43,15c15.94-13.84,37-16.69,43.15-29.1,7.34-14.9,4.09-35.07-26.43-24-24.14,8.79-26,43-25.8,56.91a405.49,405.49,0,0,0-72.5,40.88c9.12-17.25,34.91-35.13,37.56-53.83,1.74-12.27-4.79-18.36-10.62-21.32a18.45,18.45,0,0,0-15.88-.36c-28.9,12.79-18.7,63.22-14.93,78.28a384.09,384.09,0,0,0-60.4,54.51c4.64-9,11.7-22.46,15.69-29.3,6.28-10.79,9.07-28.64,3.13-39.06-.25-.43-.5-.85-.77-1.25-5-7.6-15-9.94-23.36-6.27-32.61,14.36-6.43,70.5-.41,82.44l-.31.36c-37.42,44.09-51.3,80.82-51.87,82.36l5.7,2.11c.13-.35,13.37-35.31,47.81-77,54.48,17.72,82.24-5.51,80.18-19.75-2.13-14.71-20.43-28-39.32-10.7-10.95,10-24.8,18-34.5,23a377.1,377.1,0,0,1,61.24-56c60.71,46.31,85.9,6.22,76.58-10-9.44-16.42-23.48-15.31-41.83-4.09a90.53,90.53,0,0,1-31.36,11.64,399.49,399.49,0,0,1,71-40.39c4,13,16.75,45.51,42.73,46.15,32.47.8,29.11-19.35,17.41-31.14-10.77-10.83-35.1-4.81-56.18-16.74a429.34,429.34,0,0,1,49-17.58c.28-.09,15.34-4.57,40.53-5.59,2.42,13.53,11,47.09,36.52,51,32.11,4.89,31.33-15.52,21.2-28.69-9-11.75-32.75-9.37-51.87-22.47a280.59,280.59,0,0,1,80.71,10.86c2.61,14,11.32,46.36,36.37,50.18,32.11,4.89,31.33-15.52,21.21-28.69-9.16-11.91-33.43-9.29-52.69-23l.19-.62c8.77.16,27.38.56,36.28,1.21,11.87.87,28-4.47,34-14.32A19.42,19.42,0,0,0,3457.61,1508.37Z"/><path class="cls-36" d="M3352.12,1699.18c-40.79-31.92-81.87-49-121.59-55.71-11.55,18.71-25.75,40.72-25.75,40.72l-1.68-43.82c-152.33-8.67-278,123.43-278,123.43,88.5,71.68,163.82,91.35,225.43,84.81,3.59-15.34,8.66-38.22,8.66-38.22l11,35.19c29.52-6,55.55-18,78-32.58-5.84-18.25-12-39.12-12-39.12l32.92,24C3324,1754.35,3352.12,1699.18,3352.12,1699.18Z"/><path class="cls-37" d="M3150.55,1848.61c3.59-15.34,8.66-38.22,8.66-38.22l11,35.19c29.52-6,55.55-18,78-32.58-5.84-18.25-12-39.12-12-39.12l32.92,24c54.83-43.56,83-98.73,83-98.73-177.54-26.16-427,64.62-427,64.62C3013.62,1835.48,3088.94,1855.15,3150.55,1848.61Z"/><path class="cls-38" d="M2869.42,970.39h116.26a10.84,10.84,0,0,1,10.84,10.84V988a3.62,3.62,0,0,1-3.62,3.62H2862.2a3.62,3.62,0,0,1-3.62-3.62v-6.76A10.84,10.84,0,0,1,2869.42,970.39Z"/><rect class="cls-39" x="2798.86" y="991.6" width="257.39" height="86.96" rx="19.55"/><path class="cls-16" d="M2735.1,918.33H1982.38a22,22,0,0,0-22,20.67l-54.84,889.84a22,22,0,0,0,22,23.37h862.38a22,22,0,0,0,22-23.37L2757.08,939A22,22,0,0,0,2735.1,918.33Z"/><g class="cls-40"><path class="cls-41" d="M2972.08,1516.9v4.68a20.77,20.77,0,0,1-6.12,14.79l-8.73,8.73h0a39.27,39.27,0,0,0-11.57,27.94v226.8a47.61,47.61,0,0,0,47.54,47.56h101a47.6,47.6,0,0,0,47.53-47.56V1573a39.27,39.27,0,0,0-11.57-27.94l-8.72-8.73a20.78,20.78,0,0,1-6.13-14.79v-4.68Z"/></g><path class="cls-42" d="M3131.06,1603.69v185c0,24.59-19.56,44.52-43.68,44.52h-86.81c-24.13,0-43.69-19.93-43.69-44.52V1602.24Z"/><path class="cls-43" d="M2970.86,1588.63c18.37-.65,62,13.45,79.37,14.1s36.08-11.8,60.35-9.84c17.17,1.4,20.3,7.38,20.66,10.77a3.55,3.55,0,0,1-1.78,3.45c-3.11,1.81-11.13,5.12-27.08,4.15-21.65-1.31-55.43,15.74-73.79,17.38-17,1.52-49.89-1.75-67.76-18.42a12.72,12.72,0,0,1-3.41-13.93C2958.94,1592.48,2962.6,1588.93,2970.86,1588.63Z"/><path class="cls-41" d="M2940.45,1798.67V1574.16a45.3,45.3,0,0,1,13.36-32.23l8.63-8.63a14.16,14.16,0,0,0,4.18-10.08v-11.09h154.72v11.09a14.19,14.19,0,0,0,4.17,10.08l8.64,8.63a45.29,45.29,0,0,1,13.35,32.23v224.51a53.6,53.6,0,0,1-53.54,53.54H2994A53.6,53.6,0,0,1,2940.45,1798.67Zm32.63-280.08v4.63a20.58,20.58,0,0,1-6.07,14.64l-8.64,8.64h0a38.91,38.91,0,0,0-11.45,27.66v224.51a47.12,47.12,0,0,0,47.07,47.08h100a47.13,47.13,0,0,0,47.08-47.08V1574.16a38.87,38.87,0,0,0-11.46-27.66l-8.64-8.64a20.58,20.58,0,0,1-6.07-14.64v-4.63Z"/><g class="cls-44"><path class="cls-41" d="M3113.42,1704.9a5.65,5.65,0,0,0,5.7-5.61c.18-24.39.8-117.56-.06-127.28s-9.85-15.51-16.19-18.44a5.65,5.65,0,0,0-7.77,3.57v0a5.64,5.64,0,0,0,3.05,6.7c4.37,2.05,9.31,5.38,9.64,9.14.71,8,.35,83,0,126.2a5.66,5.66,0,0,0,5.61,5.7Z"/></g><circle class="cls-16" cx="3089.25" cy="1797.86" r="11.49"/><path class="cls-16" d="M3067.24,1763.88a6,6,0,1,0,6-6A6,6,0,0,0,3067.24,1763.88Z"/><path class="cls-16" d="M3026.89,1801.21a6,6,0,1,0,6-6A6,6,0,0,0,3026.89,1801.21Z"/><path class="cls-16" d="M3086.62,1762a1.53,1.53,0,1,0,1.53-1.53A1.53,1.53,0,0,0,3086.62,1762Z"/><path class="cls-16" d="M3000.32,1778.29a2,2,0,1,0,2-2A2,2,0,0,0,3000.32,1778.29Z"/><path class="cls-16" d="M3017.22,1744.73a3.59,3.59,0,1,0,3.59-3.59A3.59,3.59,0,0,0,3017.22,1744.73Z"/><path class="cls-16" d="M3084.56,1721.33a3.59,3.59,0,1,0,3.59-3.59A3.59,3.59,0,0,0,3084.56,1721.33Z"/><path class="cls-16" d="M3077,1728.53a1.38,1.38,0,1,0,1.37-1.37A1.37,1.37,0,0,0,3077,1728.53Z"/><path class="cls-16" d="M3091.49,1736.68a3.84,3.84,0,1,0,3.84-3.84A3.84,3.84,0,0,0,3091.49,1736.68Z"/><path class="cls-16" d="M2972.16,1775a11.42,11.42,0,1,0,11.41-11.42A11.41,11.41,0,0,0,2972.16,1775Z"/><path class="cls-16" d="M2998,1755.65a5,5,0,1,0,5-5A5,5,0,0,0,2998,1755.65Z"/><path class="cls-16" d="M2972.16,1730a8.07,8.07,0,1,0,8.07-8.07A8.07,8.07,0,0,0,2972.16,1730Z"/><rect class="cls-45" x="2951.32" y="1490.26" width="186.59" height="28.33" rx="11.8" transform="translate(6089.24 3008.85) rotate(180)"/><path class="cls-46" d="M2961,1510.61h167.29a9.65,9.65,0,0,0,9.65-9.65v8a9.65,9.65,0,0,1-9.65,9.65H2961a9.66,9.66,0,0,1-9.66-9.65v-8A9.66,9.66,0,0,0,2961,1510.61Z"/><g class="cls-47"><rect class="cls-48" x="3125.63" y="1490.26" width="2.64" height="28.33" transform="translate(6253.9 3008.85) rotate(180)"/><rect class="cls-48" x="3110.63" y="1490.26" width="2.64" height="28.33" transform="translate(6223.9 3008.85) rotate(180)"/><rect class="cls-48" x="3095.64" y="1490.26" width="2.64" height="28.33" transform="translate(6193.91 3008.85) rotate(180)"/><rect class="cls-48" x="3080.64" y="1490.26" width="2.64" height="28.33" transform="translate(6163.91 3008.85) rotate(180)"/><rect class="cls-48" x="3065.64" y="1490.26" width="2.64" height="28.33" transform="translate(6133.92 3008.85) rotate(180)"/><rect class="cls-48" x="3050.64" y="1490.26" width="2.64" height="28.33" transform="translate(6103.92 3008.85) rotate(180)"/><rect class="cls-48" x="3035.65" y="1490.26" width="2.64" height="28.33" transform="translate(6073.93 3008.85) rotate(180)"/><rect class="cls-48" x="3020.65" y="1490.26" width="2.64" height="28.33" transform="translate(6043.94 3008.85) rotate(180)"/><rect class="cls-48" x="3005.65" y="1490.26" width="2.64" height="28.33" transform="translate(6013.94 3008.85) rotate(180)"/><rect class="cls-49" x="2990.66" y="1490.26" width="2.64" height="28.33" transform="translate(5983.95 3008.85) rotate(180)"/><rect class="cls-49" x="2975.66" y="1490.26" width="2.64" height="28.33" transform="translate(5953.95 3008.85) rotate(180)"/><rect class="cls-49" x="2960.66" y="1490.26" width="2.64" height="28.33" transform="translate(5923.96 3008.85) rotate(180)"/></g><path class="cls-16" d="M2053.2,918.33s9.87-240.59,214.84-321.7,340.89,116.18,365,321.7l-60.28,25.76-9.87-25.76s4.39-316.22-204.15-310.74c-206.17,5.42-246.35,315.68-246.35,315.68s-32.88,83.3-35.07,75.63S2053.2,918.33,2053.2,918.33Z"/><path class="cls-50" d="M2804.77,1713c-678.08,15.75-681.42-600.81-665.77-794.71H1982.38a22,22,0,0,0-22,20.67l-54.84,889.84a22,22,0,0,0,22,23.37h862.38a22,22,0,0,0,22-23.37Z"/><g class="cls-40"><path class="cls-41" d="M2767.45,1407.85V1414a27.54,27.54,0,0,1-8.12,19.61l-11.56,11.56a52.06,52.06,0,0,0-15.33,37v300.56a63.08,63.08,0,0,0,63,63h133.78a63.08,63.08,0,0,0,63-63V1482.25a52.07,52.07,0,0,0-15.34-37h0l-11.55-11.56a27.54,27.54,0,0,1-8.12-19.61v-6.19Z"/></g><path class="cls-51" d="M2746.51,1522.85v245.22c0,32.58,25.92,59,57.89,59h115c32,0,57.89-26.42,57.89-59V1520.94Z"/><path class="cls-52" d="M2958.81,1502.9c-24.34-.87-82.14,17.82-105.18,18.69s-47.81-15.64-80-13c-22.75,1.85-26.9,9.78-27.38,14.27a4.74,4.74,0,0,0,2.35,4.58c4.13,2.39,14.76,6.77,35.89,5.49,28.69-1.73,73.46,20.87,97.8,23,22.55,2,66.1-2.32,89.79-24.41a16.86,16.86,0,0,0,4.52-18.47C2974.61,1508,2969.76,1503.3,2958.81,1502.9Z"/><path class="cls-41" d="M2928.16,1852.21H2795.68a71,71,0,0,1-70.95-71V1483.73a60,60,0,0,1,17.69-42.71l11.45-11.45a18.8,18.8,0,0,0,5.53-13.36v-14.69h205v14.69a18.76,18.76,0,0,0,5.53,13.36l11.45,11.45a60,60,0,0,1,17.69,42.71v297.53A71,71,0,0,1,2928.16,1852.21ZM2768,1410.08v6.13a27.27,27.27,0,0,1-8,19.42l-11.45,11.44a51.5,51.5,0,0,0-15.18,36.66v297.53a62.46,62.46,0,0,0,62.39,62.39h132.48a62.46,62.46,0,0,0,62.39-62.39V1483.73a51.51,51.51,0,0,0-15.19-36.66h0l-11.44-11.44a27.27,27.27,0,0,1-8-19.42v-6.13Z"/><g class="cls-44"><path class="cls-41" d="M2769.89,1657a7.49,7.49,0,0,1-7.56-7.43c-.23-32.31-1-155.79.09-168.68s13-20.55,21.45-24.43a7.49,7.49,0,0,1,10.3,4.73v0a7.49,7.49,0,0,1-4,8.89c-5.8,2.71-12.34,7.12-12.78,12.12-.94,10.57-.46,110,0,167.24a7.48,7.48,0,0,1-7.43,7.54Z"/></g><circle class="cls-16" cx="2801.92" cy="1780.18" r="15.22" transform="translate(595.9 4260.76) rotate(-80.78)"/><path class="cls-16" d="M2831.09,1735.15a7.93,7.93,0,1,1-7.93-7.93A7.92,7.92,0,0,1,2831.09,1735.15Z"/><circle class="cls-16" cx="2876.64" cy="1784.62" r="7.93" transform="translate(-419.37 2556.79) rotate(-45)"/><path class="cls-16" d="M2805.41,1732.68a2,2,0,1,1-2-2A2,2,0,0,1,2805.41,1732.68Z"/><path class="cls-16" d="M2919.78,1754.24a2.65,2.65,0,1,1-2.65-2.65A2.65,2.65,0,0,1,2919.78,1754.24Z"/><path class="cls-16" d="M2897.38,1709.77a4.76,4.76,0,1,1-4.76-4.75A4.76,4.76,0,0,1,2897.38,1709.77Z"/><path class="cls-16" d="M2808.13,1678.76a4.76,4.76,0,1,1-4.75-4.76A4.76,4.76,0,0,1,2808.13,1678.76Z"/><path class="cls-16" d="M2818.16,1688.3a1.82,1.82,0,1,1-1.81-1.82A1.81,1.81,0,0,1,2818.16,1688.3Z"/><path class="cls-16" d="M2799,1699.1a5.09,5.09,0,1,1-5.09-5.09A5.09,5.09,0,0,1,2799,1699.1Z"/><path class="cls-16" d="M2957.1,1749.83A15.13,15.13,0,1,1,2942,1734.7,15.12,15.12,0,0,1,2957.1,1749.83Z"/><path class="cls-16" d="M2922.89,1724.24a6.61,6.61,0,1,1-6.61-6.61A6.62,6.62,0,0,1,2922.89,1724.24Z"/><path class="cls-16" d="M2957.1,1690.25a10.7,10.7,0,1,1-10.7-10.7A10.7,10.7,0,0,1,2957.1,1690.25Z"/><rect class="cls-53" x="2737.42" y="1372.54" width="247.28" height="37.54" rx="15.06"/><path class="cls-54" d="M2971.92,1399.51h-221.7a12.8,12.8,0,0,1-12.8-12.79v10.57a12.8,12.8,0,0,0,12.8,12.79h221.7a12.79,12.79,0,0,0,12.79-12.79v-10.57A12.79,12.79,0,0,1,2971.92,1399.51Z"/><g class="cls-47"><rect class="cls-55" x="2750.22" y="1372.54" width="3.49" height="37.54"/><rect class="cls-55" x="2770.09" y="1372.54" width="3.49" height="37.54"/><rect class="cls-55" x="2789.97" y="1372.54" width="3.49" height="37.54"/><rect class="cls-55" x="2809.84" y="1372.54" width="3.49" height="37.54"/><rect class="cls-55" x="2829.72" y="1372.54" width="3.49" height="37.54"/><rect class="cls-55" x="2849.59" y="1372.54" width="3.49" height="37.54"/><rect class="cls-55" x="2869.46" y="1372.54" width="3.49" height="37.54"/><rect class="cls-55" x="2889.34" y="1372.54" width="3.49" height="37.54"/><rect class="cls-55" x="2909.21" y="1372.54" width="3.49" height="37.54"/><rect class="cls-55" x="2929.09" y="1372.54" width="3.49" height="37.54"/><rect class="cls-55" x="2948.96" y="1372.54" width="3.49" height="37.54"/><rect class="cls-55" x="2968.84" y="1372.54" width="3.49" height="37.54"/></g><polygon class="cls-56" points="2468.81 1352.42 2576.14 1302.05 2630.89 1401.7 2634.72 1425.25 2607.89 1488.22 2528.54 1473.14 2468.81 1352.42"/><path class="cls-57" d="M2430.48,1465.22h135.89c23.69,0,46.1-12.34,57.45-33.13a56.27,56.27,0,0,0,7.07-30.39s50.38,152.23-67.9,171.94H2430.48v22.45l-73.38-71.18,73.93-79.4Z"/><polygon class="cls-58" points="2303.18 1468.14 2296.5 1586.52 2182.79 1587.34 2160.25 1579.52 2117.6 1525.99 2168.57 1463.33 2303.18 1468.14"/><path class="cls-59" d="M2222.14,1380.81l-64.57,119.57c-11.26,20.84-11.05,46.42,1.84,66.3a56.4,56.4,0,0,0,23.38,20.66s-157.88-28-119-141.45l63-116.6L2107,1318.62l97.51-30.73,34.73,102.77Z"/><polygon class="cls-60" points="2296.51 1288.59 2194.65 1227.93 2246.51 1126.73 2263.86 1110.36 2331.05 1097.3 2363.03 1171.48 2296.51 1288.59"/><path class="cls-61" d="M2411.42,1257.13l-76.15-112.55c-13.27-19.62-36.05-31.26-59.63-29a56.32,56.32,0,0,0-29.13,11.17s97.85-127,180.46-40.11l74.25,109.76,18.59-12.58L2502,1284.46l-107.18-16.74Z"/><path class="cls-62" d="M3368.13,1852.46H1424.87a6.1,6.1,0,0,1-6.1-6.1h0a6.1,6.1,0,0,1,6.1-6.1H3368.13a6.1,6.1,0,0,1,6.1,6.1h0A6.1,6.1,0,0,1,3368.13,1852.46Z"/><path class="cls-63" d="M2523.93,387.94a27,27,0,0,1,33-20,39.68,39.68,0,0,1,47.68-21.06,48.84,48.84,0,0,1,87.73,8.54,33.5,33.5,0,0,1,49.79,29.28,31.86,31.86,0,0,1-.16,3.25Z"/><path class="cls-63" d="M3100.76,735.28a26.81,26.81,0,0,1,32.9-19.93,39.49,39.49,0,0,1,47.5-21,48.67,48.67,0,0,1,87.41,8.5A33.38,33.38,0,0,1,3318.18,732c0,1.09-.06,2.17-.16,3.24Z"/><path class="cls-64" d="M1478.54,789.07a26.85,26.85,0,0,1,32.9-19.93,39.5,39.5,0,0,1,47.5-21,48.66,48.66,0,0,1,87.41,8.5A33.38,33.38,0,0,1,1696,785.83c0,1.1-.06,2.18-.16,3.24Z"/><path class="cls-63" d="M3013.61,603.24a10.57,10.57,0,0,1,12.91-7.82,15.46,15.46,0,0,1,14-8.92,15.21,15.21,0,0,1,4.6.7,19.09,19.09,0,0,1,34.28,3.33A13.1,13.1,0,0,1,3098.88,602c0,.43,0,.85-.07,1.27Z"/><path class="cls-65" d="M1674.75,654.35a10.51,10.51,0,0,1,12.9-7.82,15.48,15.48,0,0,1,14-8.92,15.21,15.21,0,0,1,4.6.7,19.09,19.09,0,0,1,34.28,3.33A13.09,13.09,0,0,1,1760,653.08c0,.43,0,.85-.06,1.27Z"/><path class="cls-63" d="M2369.87,493.62a14.95,14.95,0,0,1,18.32-11.1,22,22,0,0,1,26.46-11.68,27.09,27.09,0,0,1,48.67,4.73A18.6,18.6,0,0,1,2491,491.82a17.78,17.78,0,0,1-.09,1.8Z"/><path class="cls-12" d="M2492.31,809.19l-.61.06c0,.21,0,.33,0,.33l3.25,3.82.91.19s6.32-.26,10.11,1.63S2505.61,808.06,2492.31,809.19Z"/><path class="cls-5" d="M2360.26,860.38q-2.52,5.5-5.17,10.92c-1.76,3.63-3.56,7.23-5.35,10.83l-5.45,10.77-2.73,5.39c-.92,1.79-1.82,3.59-2.65,5.42,1.35-3.8,3-7.47,4.73-11.12s3.48-7.27,5.27-10.87,3.65-7.19,5.54-10.74S2358.26,863.88,2360.26,860.38Z"/><path class="cls-5" d="M2331.3,904a91.42,91.42,0,0,1,15.25-.84,108.07,108.07,0,0,1,15.23,1.41,103.82,103.82,0,0,1,14.86,3.61l3.62,1.28c.3.12.6.2.9.35l.86.41,1.73.82c1.14.57,2.27,1.15,3.39,1.76s2.23,1.23,3.29,1.94c-2.23-1.22-4.54-2.28-6.88-3.28l-1.74-.76-.88-.37a8.45,8.45,0,0,0-.89-.3l-3.61-1.16a125.29,125.29,0,0,0-14.8-3.39,129.88,129.88,0,0,0-15.11-1.6c-2.53-.1-5.07-.2-7.61-.17S2333.84,903.81,2331.3,904Z"/><path class="cls-12" d="M2400.41,917.39c-5.26-3.13-12-3.15-17.45-2.35l-.8.16c-4.3.91-4.14,3.25-3.82,4.32a.81.81,0,0,0,.77.56c.67,0,1.52.08,2.68.21,6.73.77-.05,8.52,2.58,8.65,3.32.16,2.7-7.11,4.42-6.92,3.26.36-.89,6.66,1.25,7.11,2.34.49.68-7.34,4.42-7,2,.19-.78,7.22,1.59,6.79s.63-6.79,2.91-6.6c3.37.29-1,6.36,1.45,6.79C2401.9,929.39,2404.14,919.61,2400.41,917.39Z"/><path class="cls-66" d="M2424.06,810.45c-1.44,3.15-.57,6.65,2,7.8s5.74-.46,7.19-3.61.57-6.65-1.95-7.81S2425.51,807.3,2424.06,810.45Z"/><path class="cls-12" d="M2422.33,829.18a26.42,26.42,0,0,0,2.21-4.3,49.52,49.52,0,0,0,3.21-12.22c.12-.82.28-1.62.46-2.43a26.84,26.84,0,1,0-53-6.92,5.77,5.77,0,0,0-5.2-.63c-3.24,1.28-4.57,5.61-3,9.66s5.53,6.3,8.77,5a5.22,5.22,0,0,0,1.24-.7c.77,13.18,11.09,23.77,24,24.12a24.14,24.14,0,0,0,16.61-6.1c.29-.23.61-.5.94-.81A23.17,23.17,0,0,0,2422.33,829.18Z"/><path class="cls-67" d="M2399.16,806.67a2.34,2.34,0,1,1-2.28-2.4A2.34,2.34,0,0,1,2399.16,806.67Z"/><path class="cls-67" d="M2419.23,808.52a2.34,2.34,0,1,1-2.27-2.4A2.34,2.34,0,0,1,2419.23,808.52Z"/><path class="cls-5" d="M2402.11,802.1a21.34,21.34,0,0,0-3.31-1.19,11.4,11.4,0,0,0-3.25-.4,10.62,10.62,0,0,0-3.22.55l-.41.11c-.13,0-.26.11-.39.16l-.81.31c-.55.22-1.06.52-1.66.73a10.11,10.11,0,0,1,1.2-1.43,8.42,8.42,0,0,1,1.53-1.11,7.65,7.65,0,0,1,3.73-1,8,8,0,0,1,3.76.86A7.37,7.37,0,0,1,2402.11,802.1Z"/><path class="cls-5" d="M2411.52,802.83a7.46,7.46,0,0,1,3.18-2,7.91,7.91,0,0,1,3.84-.26,7.62,7.62,0,0,1,3.53,1.58,8.49,8.49,0,0,1,1.34,1.34,9.75,9.75,0,0,1,1,1.6c-.56-.31-1-.68-1.53-1l-.75-.43c-.13-.07-.24-.16-.37-.22l-.39-.18a10.61,10.61,0,0,0-3.09-1,11.15,11.15,0,0,0-3.27-.11A21.49,21.49,0,0,0,2411.52,802.83Z"/><path class="cls-66" d="M2406.87,804.73a36.17,36.17,0,0,1,3.86,8.14,12.13,12.13,0,0,1,.47,2.28,4.42,4.42,0,0,1,0,.63c0,.11,0,.23-.06.35a1.42,1.42,0,0,1-.16.36c0,.07-.09.13-.13.19l-.12.1-.23.2a3.91,3.91,0,0,1-.49.34,10.91,10.91,0,0,1-2.06,1,15.41,15.41,0,0,1-2.18.62,24.68,24.68,0,0,0,3.83-2.21c.14-.11.26-.23.4-.35l.18-.17.08-.09,0,0a1.86,1.86,0,0,0,0-.85,11.68,11.68,0,0,0-.49-2.09c-.42-1.4-.94-2.79-1.45-4.19S2407.35,806.16,2406.87,804.73Z"/><path class="cls-5" d="M2385.56,770.11s8.11-6,25.26-3.51,19.67,12,19.59,25.39l-1.6,14.5s-4.77-3.92-9.54-17.58c0,0-10.54,10.39-14.63,8.72s2.34-9.25,2.34-9.25-20.23,16.08-31.8,15.1c0,0-5.32-21.18,3.88-28,0,0-6.5-.21-6.74-1.56s3.35-3,9.52-1.77c0,0-3.72-9.33-1.16-10.06S2385.56,770.11,2385.56,770.11Z"/><path class="cls-2" d="M2412.45,824.6c-1.07,2.74-4.65,4.47-8.63,4s-7.05-3-7.42-5.93Z"/><polygon class="cls-12" points="2685.82 1823.96 2685.82 1811.41 2671.47 1807.43 2668.27 1808.84 2667.73 1823.96 2672.25 1837.14 2685.82 1823.96"/><polygon class="cls-12" points="2594.08 1823.96 2594.08 1811.41 2579.72 1807.43 2576.53 1808.84 2575.98 1823.96 2580.5 1837.14 2594.08 1823.96"/><path class="cls-16" d="M2581.46,1416.23s-18.84,22.38-63.2,26.33-11.15,27.37-11.15,27.37,53.46,7.7,72.14-4.84S2581.46,1416.23,2581.46,1416.23Z"/><polygon class="cls-5" points="2562.86 1566.59 2573.04 1814.88 2596.77 1814.88 2617.67 1627.21 2590.26 1543.13 2562.86 1566.59"/><path class="cls-5" d="M2573,1567.11,2666,1814.88l22.76-1.86s-28.33-227.15-45.29-248.76-54.11-17-54.11-17Z"/><path class="cls-68" d="M2624.9,1374.11s4.94-25.63-9.5-34.65-29.32-7.42-39.27-1.35-15.27,26.17-10.28,37.38l33.32-12.07Z"/><path class="cls-12" d="M2583.36,1416.46s11.48,6.8,20.42,0h0l-2.11-16.61-17.79-3.67-.52,20.28Z"/><path class="cls-66" d="M2571.58,1373.58c1,3.13-.24,6.31-2.82,7.1s-5.51-1.09-6.53-4.21.23-6.31,2.82-7.1S2570.55,1370.46,2571.58,1373.58Z"/><path class="cls-12" d="M2571,1391.36a24.29,24.29,0,0,1-1.62-4.29,45.18,45.18,0,0,1-1.66-11.83c0-.78-.08-1.56-.15-2.34a24.51,24.51,0,0,1,1-9.73,26.18,26.18,0,0,1,25.13-18c15.48.07,27.24,12.81,26.05,27.37a5.8,5.8,0,0,1,5.11,0c3,1.58,3.76,5.79,1.72,9.41s-6.11,5.28-9.1,3.7a5.23,5.23,0,0,1-1.11-.8,24.41,24.41,0,0,1-26.12,19.87,23.73,23.73,0,0,1-15.36-7.63,10.16,10.16,0,0,1-.82-.87A21.9,21.9,0,0,1,2571,1391.36Z"/><path class="cls-67" d="M2594.43,1373.2a2.24,2.24,0,0,0,2.05,2.42,2.28,2.28,0,0,0,2.5-2,2.23,2.23,0,0,0-2.06-2.41A2.26,2.26,0,0,0,2594.43,1373.2Z"/><path class="cls-67" d="M2576.48,1372.33a2.22,2.22,0,0,0,2.06,2.41,2.22,2.22,0,1,0,.44-4.41A2.28,2.28,0,0,0,2576.48,1372.33Z"/><path class="cls-68" d="M2592.11,1368.57a21.79,21.79,0,0,1,3.35-.74,11.82,11.82,0,0,1,3.2,0,10.74,10.74,0,0,1,3.05.88l.39.16c.12.05.23.13.36.19l.75.39c.5.27,1,.61,1.52.88a9,9,0,0,0-1-1.48,8.27,8.27,0,0,0-1.35-1.22,7.55,7.55,0,0,0-3.49-1.39,8,8,0,0,0-3.74.37A7.27,7.27,0,0,0,2592.11,1368.57Z"/><path class="cls-68" d="M2584.63,1367.87a7.15,7.15,0,0,0-2.84-2.21,7.85,7.85,0,0,0-3.69-.69,7.47,7.47,0,0,0-3.6,1.08,8.41,8.41,0,0,0-1.47,1.1,10.4,10.4,0,0,0-1.12,1.38c.58-.22,1.07-.51,1.59-.74l.78-.32c.13,0,.25-.12.38-.16l.4-.12a10.61,10.61,0,0,1,3.12-.62,11.59,11.59,0,0,1,3.19.28A22.13,22.13,0,0,1,2584.63,1367.87Z"/><path class="cls-66" d="M2588.21,1367.82a16.57,16.57,0,0,1,.32,4.77,13,13,0,0,1-.4,2.42,6.21,6.21,0,0,1-1.18,2.37l-.28.27-.24.23c-.11.11-.26.19-.33.31a1.75,1.75,0,0,0-.41.72,2.09,2.09,0,0,0,.34,1.7,6.78,6.78,0,0,0,3.71,2.41,5.68,5.68,0,0,1-4.7-1.71,3.21,3.21,0,0,1-.8-2.71,2.56,2.56,0,0,1,.25-.72,3,3,0,0,1,.41-.64,5.11,5.11,0,0,1,.52-.52c.11-.09.13-.13.19-.18l.15-.15a5.78,5.78,0,0,0,.95-1.8,18.72,18.72,0,0,0,.61-2.17C2587.65,1370.92,2587.91,1369.39,2588.21,1367.82Z"/><path class="cls-2" d="M2581.15,1386.1c.76,2.72,4.11,4.72,8.08,4.65s7.25-2.18,7.91-4.92Z"/><path class="cls-68" d="M2619.1,1373.29a4.09,4.09,0,0,1,2.69-1.34l-1-8.19-2.75-4.86s-10.52-12.93-10.89-13.24-8.16-4.33-8.64-4.53-11.11,1.83-11.11,1.83-19-3.11-15.4,6.6,17.49,14.33,18.18,13.86c-2.32-2.11-2.79-8.36-2.79-8.36C2597.5,1365.22,2616.19,1372.24,2619.1,1373.29Z"/><path class="cls-5" d="M2555.73,1840.26l39.61,0a2.15,2.15,0,0,0,2.15-2.15V1838a2.16,2.16,0,0,0-2.16-2.16l-39.6,0a2.16,2.16,0,0,0-2.16,2.15v.11A2.16,2.16,0,0,0,2555.73,1840.26Z"/><path class="cls-69" d="M2595.47,1822.39l1.46,12.29c.19,1.51-.66,2.89-1.78,2.89l-38.7,0a2.79,2.79,0,0,1-2.52-1.8c-.55-1.21-.66-3,1.07-5.48,3.37-4.76,14.22-6,19.93-9.94a2,2,0,0,1,1.12-.35h17.39C2594.45,1820,2595.31,1821,2595.47,1822.39Z"/><path class="cls-5" d="M2647,1840.26l39.61,0a2.14,2.14,0,0,0,2.15-2.15V1838a2.16,2.16,0,0,0-2.15-2.16l-39.61,0a2.14,2.14,0,0,0-2.15,2.15v.11A2.16,2.16,0,0,0,2647,1840.26Z"/><path class="cls-69" d="M2686.72,1822.39l1.47,12.29c.18,1.51-.67,2.89-1.78,2.89l-38.7,0a2.8,2.8,0,0,1-2.53-1.8c-.55-1.21-.65-3,1.08-5.48,3.36-4.76,14.21-6,19.93-9.94a2,2,0,0,1,1.11-.35h17.39C2685.7,1820,2686.56,1821,2686.72,1822.39Z"/><path class="cls-70" d="M2441.14,1434.58l1.42-.27,79.13-15.39a15.16,15.16,0,0,1,17.93,13l24.21,191a15.15,15.15,0,0,1-8.18,15.43,263.16,263.16,0,0,1-142.91,27.78,15.14,15.14,0,0,1-13.37-11.24l-49.12-186.18A15.15,15.15,0,0,1,2362,1450Z"/><path class="cls-5" d="M2337.77,1428.52c.6-8,4.9-14,10.79-15.19l85.23-16.57,1.42-.27,85.22-16.57c5.9-1.15,12.15,2.85,15.7,10l11.82,24a11.37,11.37,0,0,1-8,16.18l-94.6,18.39-1.42.28-94.61,18.39a11.37,11.37,0,0,1-13.5-12Z"/><path class="cls-5" d="M2346,1399.59a6.51,6.51,0,0,1,5.15-7.62l78.71-15.3,1.42-.28,78.72-15.3a6.5,6.5,0,0,1,7.62,5.14l3.72,19.15-86.85,11.29-84.76,22.07Z"/><path class="cls-71" d="M2550.53,1465.61l9.47,87.13a3.53,3.53,0,0,1-1.95,3.56A353.94,353.94,0,0,1,2379.77,1591a3.54,3.54,0,0,1-3.14-2.57l-23.87-84.34a3.54,3.54,0,0,1,3.45-4.51c43.78.7,149.1-19.78,189.44-36.82A3.53,3.53,0,0,1,2550.53,1465.61Z"/><path class="cls-16" d="M2433.63,1533.53a34.77,34.77,0,1,0,34.77-34.76A34.77,34.77,0,0,0,2433.63,1533.53Z"/><path class="cls-72" d="M2500,1500.55a.71.71,0,0,1-.28,1.21c-4.18,1.14-17.34,4.79-17.3,5.92.06,1.35,11.9-1.63,12.59-.59s-10.93,3.65-10.64,5.08,10.81-1.31,11.14-.75-9.46,4.26-9.79,5.21,10.6-1.74,11.2-1.18-6.34,4.93-6,5.56.41,1.12,18.82-4.22l7.16-2.41,4.79-5.13-3.58-7.63s-23.07-8.76-23.9-8.17S2493.55,1494.83,2500,1500.55Z"/><path class="cls-70" d="M2514.31,1492.26c9.1,2.18,30.51,1.09,46.72-.18.14-13.41.65-25.89,1.83-34.66,4.18-31.12,18.6-41.19,18.6-41.19a35.85,35.85,0,0,0,24.37-6c19.27.24,30.42,10.69,30.42,10.69,29.62,25.54,7.2,77.81,7.2,77.81l8.13,69c-18.35,6.28-93.37,2.51-93.37,2.51a268.5,268.5,0,0,0,3.13-44.37c-23.77-1.34-47-5.12-47-5.12C2513.38,1515.72,2514.31,1492.26,2514.31,1492.26Z"/><path class="cls-16" d="M2613.34,1445.73a39,39,0,0,1-11.64,27.41,50.84,50.84,0,0,1-12.2,8.92,70.17,70.17,0,0,1-14.11,5.66c-.61.18-1.21.39-1.83.55l-1.86.46c-1.24.29-2.47.62-3.72.89l-3.76.71-1.88.35-1.9.26c-2.53.37-5.06.75-7.62.94l-3.83.35c-1.27.1-2.55.14-3.83.22a302.44,302.44,0,0,1-30.85-.19,200.75,200.75,0,0,0,30.91,1.82c10.33-.28,20.75-1.39,30.76-4.35a70.05,70.05,0,0,0,14.47-5.94,49.93,49.93,0,0,0,12.43-9.53,41.89,41.89,0,0,0,4.81-6.21,42.4,42.4,0,0,0,3.47-7,40.52,40.52,0,0,0,1.93-7.56A29.53,29.53,0,0,0,2613.34,1445.73Z"/><path class="cls-16" d="M2514.31,1520.83a261.7,261.7,0,0,0,34.12,5.21,232,232,0,0,0,34.58.6c11.51-.78,23.09-2.5,34-6.55a59.33,59.33,0,0,0,15.32-8.19,38.3,38.3,0,0,0,11.12-13.13,39.6,39.6,0,0,1-11.73,12.3,61.28,61.28,0,0,1-15.26,7.48,105.26,105.26,0,0,1-16.57,4.09,161.51,161.51,0,0,1-17,1.92,278.75,278.75,0,0,1-34.32-.14q-8.59-.54-17.15-1.43C2525.69,1522.42,2520,1521.68,2514.31,1520.83Z"/><path class="cls-73" d="M1640.42,689.29l11.71,48.79,23.7-36.78,81.06-90.41-75.3,37.2s-36,25-37.45,27.75S1640.42,689.29,1640.42,689.29Z"/><polygon class="cls-74" points="1596.61 674.56 1756.91 611.48 1641.54 689.14 1596.61 674.56"/><polygon class="cls-75" points="1710.57 715.89 1654.89 698.11 1756.89 610.89 1710.57 715.89"/><path class="cls-16" d="M1538.42,1014.2l.91-4a46.65,46.65,0,0,1-11.93-4.6l-2,3.55A50.2,50.2,0,0,0,1538.42,1014.2Z"/><path class="cls-16" d="M1491.39,968.85l3.67-1.74a113.76,113.76,0,0,0,13.38,21.9l-3.18,2.53A118.26,118.26,0,0,1,1491.39,968.85Zm-10.26-28.17a106.91,106.91,0,0,1-2.15-11.79c-.47-3.66-.75-7.41-.86-11.16l4.06-.11c.1,3.62.37,7.24.82,10.77a107.44,107.44,0,0,0,2.07,11.35c.26,1.09.54,2.17.84,3.25l-3.92,1.07C1481.68,942.92,1481.39,941.78,1481.13,940.68Zm-.88-49.42a154.12,154.12,0,0,1,7.09-25.53l3.81,1.41a149,149,0,0,0-6.91,24.86Zm117.14-53.78-.82-.17.89-4,.67.15a2.34,2.34,0,0,0,.43,0c2.25-.29,7.67-2.38,10-5.36a17.19,17.19,0,0,0,3.45-9.3l4,.35a21.45,21.45,0,0,1-4.3,11.46c-3.24,4.13-9.87,6.52-12.69,6.87A5.18,5.18,0,0,1,1597.39,837.48Zm-99.06,4.18a211.82,211.82,0,0,1,14.08-22.37l3.29,2.37a208,208,0,0,0-13.81,21.94Zm72.57-27.89a49.35,49.35,0,0,1-2.91-11.65,58.29,58.29,0,0,1-.45-6.82l4.06,0a54.43,54.43,0,0,0,.42,6.34,44.76,44.76,0,0,0,2.66,10.69,36.75,36.75,0,0,0,3.47,6.78l-3.41,2.21A41.32,41.32,0,0,1,1570.9,813.77Zm10.76-26.28-.57,0,.29-4,.61,0a40.8,40.8,0,0,1,24.33,10.44l-2.79,2.94A36.68,36.68,0,0,0,1581.66,787.49Zm-50,13.35c3.71-2.9,10.52-8,14.47-9.77,3.07-1.36,5.92-2.49,8.72-3.47l1.34,3.83c-2.69.94-5.45,2-8.42,3.35-2.59,1.14-7.55,4.51-13.61,9.25ZM1572.26,769a90.69,90.69,0,0,1,12.49-23.59l3.27,2.41a86.57,86.57,0,0,0-11.94,22.53Z"/><path class="cls-16" d="M1606,729.72a78.24,78.24,0,0,1,11.08-6.86l-1.83-3.62a82.82,82.82,0,0,0-11.66,7.21Z"/><path class="cls-76" d="M1980,1329c-8.31,0-22.42-5.53-37.78,4.47-4.35,2.83-7.15,7.45-8.89,12.33a79.59,79.59,0,0,0-3.33,13.36c-1.51,8.8-22.6,6.57-29.82,22-9.4,20.05,7.16,38.15,19.19,52,26.15,30.11,59.9,22.13,68.19,26.11,6,2.87,1.56-9.23,8.16-8.81s14.26.29,18-5.07c2.13-3.06,2.29-7.06,3.79-10.48,2.11-4.77,6.61-8,10.91-10.94,5.43-3.74,10.88-7.5,16.84-10.32,6.33-3,41.68-6.64,31.12-52.21-4.09-17.66-14.54-28.15-25.37-35.74-7.78-5.44-15-7.39-25.86-7.69C2000.21,1317.31,2002,1329,1980,1329Z"/><polygon class="cls-12" points="2073.36 1616.15 2070.13 1822.19 2064.87 1837.05 2049.08 1822.19 2034.11 1610.87 2073.36 1616.15"/><path class="cls-12" d="M1979.1,1623.12h39.5S2000,1821,2000.14,1822.19s-6.66,10.11-6.66,10.11l-14.38-10.11Z"/><path class="cls-5" d="M2082.81,1790.8c-11.23,4.49-28.66,9-47.91,4.88l-3.58-164.54-2.67-29a41.06,41.06,0,0,1-3.22,2.6l-9.61,188a99.25,99.25,0,0,1-47.43,3c-.08-11.31,6.93-183.88,7-191.9.51-57.86,18.4-66.33,18.4-66.33l30.45-7.71,6.69,1.15c10.64-3.5,29.91-7.49,37.84,5.8,11.23,18.83,10.57,76.87,10.57,76.87S2082.89,1782.83,2082.81,1790.8Z"/><path class="cls-12" d="M2058.85,1478.67l28.56-13.22-2.59,30.25s54.08-24.56,56.81-27c.91-.82,1.95-3,2.95-5.51A55.84,55.84,0,0,0,2147,1455c.95-4.2,4.54-7.56,5.75-8.66a17.16,17.16,0,0,0,2.41-4.64.87.87,0,0,1,1.7.09l.29,1.89a9.61,9.61,0,0,1-.78,4.8l.75-.29,1.25,12.72L2156.8,1472l-8.55,6.45s-75.35,54.23-82.24,47.15C2058.6,1518,2058.85,1478.67,2058.85,1478.67Z"/><path class="cls-77" d="M2065.35,1414.69s5.85,1.39,14.31,11.86,16,39.44,16,39.44l-27,14.76-17.58-35Z"/><path class="cls-78" d="M1988.8,1581.7c2.85,1,5.66,2.19,8.44,3.39s5.53,2.48,8.25,3.8,5.43,2.66,8.11,4.06,5.36,2.82,8,4.29l.21-.5a55.37,55.37,0,0,0-6-.92,58.21,58.21,0,0,0-6-.29,48.71,48.71,0,0,0-6,.35l-1.5.2-1.49.26-.74.14-.74.17-1.46.36,1.48-.29.74-.14.74-.11,1.49-.21,1.5-.15c.5,0,1-.07,1.5-.1s1-.07,1.51-.07l1.5,0c.5,0,1,0,1.51,0,2,0,4,.18,6,.4a55.71,55.71,0,0,1,5.92,1l1.79.4-1.58-.9c-2.64-1.5-5.3-3-8-4.32s-5.42-2.72-8.16-4-5.54-2.48-8.34-3.64c-1.42-.56-2.83-1.12-4.26-1.62S1990.25,1582.17,1988.8,1581.7Z"/><path class="cls-78" d="M2068.77,1580.55c-1.45.47-2.9.93-4.32,1.47s-2.84,1.06-4.26,1.62c-2.8,1.16-5.59,2.36-8.34,3.64s-5.47,2.64-8.16,4-5.36,2.82-8,4.32l-1.58.9,1.79-.39a55.73,55.73,0,0,1,5.92-1c2-.22,4-.36,6-.4.5,0,1,0,1.51,0l1.5,0c.5,0,1,0,1.5.07s1,.05,1.51.11l1.5.14,1.49.21.74.11.74.14,1.48.29-1.46-.36-.74-.17-.74-.14-1.49-.26-1.5-.2a50.72,50.72,0,0,0-6-.35c-2,0-4,.09-6,.29a57.94,57.94,0,0,0-6,.92l.21.51c2.63-1.48,5.31-2.89,8-4.3s5.39-2.75,8.12-4.06,5.47-2.59,8.25-3.8S2065.92,1581.6,2068.77,1580.55Z"/><path class="cls-79" d="M2006.13,1556.46a5.9,5.9,0,0,1-.4.84l-.43.83-.88,1.65-1.47,2.72-4.17,7.25c-.58,1.1-6.06,10.64-7.36,12.77a55.08,55.08,0,0,0,4.88-6c.66-1.06,1.28-2.15,1.9-3.23s1.21-2.18,1.8-3.28c1.16-2.2,2.27-4.43,3.31-6.69.53-1.13,1-2.27,1.52-3.41.23-.58.47-1.15.7-1.73A13.65,13.65,0,0,0,2006.13,1556.46Z"/><path class="cls-80" d="M1953,1448.41c12.28-14.82,26.47-30.91,38.88-37.17,4.76-2.4,16-2.87,22.57-3.94a152.9,152.9,0,0,1,33.94.12c9.09,3.32,25,8.95,25.17,14.34,1,26.9,1.35,47.52,1.2,63.33,0,.06.45,57.33,0,69.56,0,0-62.27,13.43-94.12,5.36,0,0-5.26-74.92,2.3-95.15l-3.22,4.1S1966.91,1466,1953,1448.41Z"/><path class="cls-12" d="M1954.85,1450.74c8.45,10.27,17.8,15.72,22.48,17.44l-30.11,36.07,55.08,59.38-9.69,16.89c-7.66-3.71-9.39-17.8-9.39-17.8s-68.17-45.59-68.17-56.49C1915.05,1491.63,1954.85,1450.74,1954.85,1450.74Z"/><path class="cls-81" d="M1954.37,1450c.47.54.89,1.1,1.39,1.61l1.46,1.55.72.78.77.74,1.53,1.47c.51.48,1.06.94,1.59,1.41,1,1,2.2,1.78,3.28,2.68a58.6,58.6,0,0,0,7.13,4.56l.93.5.95.46c.63.32,1.28.59,1.92.87l1,.39c.33.13.65.26,1,.37s.92.32,1.36.45l3.3-3.94,3.74-4.4c2.49-3,5-5.84,7.56-8.75s5.1-5.79,7.69-8.64,5.2-5.71,7.88-8.5c-2.29,3.1-4.65,6.14-7,9.17s-4.79,6-7.21,9-4.87,6-7.35,8.91l-3.71,4.43-3.74,4.4-.41.48-.59-.16a21.43,21.43,0,0,1-2.18-.7c-.69-.25-1.38-.53-2-.84s-1.34-.61-2-1c-.32-.17-.65-.33-1-.51l-1-.54a51.62,51.62,0,0,1-7.14-5l-1.63-1.43c-.55-.48-1-1-1.56-1.5s-1-1-1.52-1.53l-1.43-1.61-.71-.81-.66-.84-1.31-1.69c-.85-1.15-1.61-2.35-2.41-3.52Z"/><path class="cls-12" d="M2041.91,1406.81s-12.36,7.32-22,0h0l2.27-17.89,19.16-4,.56,21.84Z"/><path class="cls-66" d="M2041.65,1396.64l-.3-11.67-19.44,6-.55,4.37C2025.68,1397,2033.88,1398.86,2041.65,1396.64Z"/><path class="cls-66" d="M2055.63,1355.82c-.52,3.51,1.4,6.65,4.28,7s5.64-2.16,6.16-5.66-1.39-6.65-4.28-7S2056.15,1352.32,2055.63,1355.82Z"/><path class="cls-12" d="M2059.45,1374.59a25.38,25.38,0,0,0,1-4.85,49.07,49.07,0,0,0-.4-12.86c-.12-.83-.2-1.67-.26-2.51a26.47,26.47,0,0,0-2.84-10.14c-5.44-10.72-17.77-16.73-30-14.58-16.42,2.9-26.58,18.57-22.66,33.8a6.3,6.3,0,0,0-5.43.93c-2.88,2.22-2.93,6.83-.11,10.31s7.45,4.48,10.33,2.26a5.17,5.17,0,0,0,1-1.06,26.3,26.3,0,0,0,31.34,16.35,25.54,25.54,0,0,0,14.92-10.9,11,11,0,0,0,.71-1.07A23,23,0,0,0,2059.45,1374.59Z"/><path class="cls-67" d="M2029.42,1359.57a2.41,2.41,0,0,1-1.74,2.94,2.45,2.45,0,0,1-3-1.66,2.4,2.4,0,0,1,1.74-2.94A2.43,2.43,0,0,1,2029.42,1359.57Z"/><path class="cls-67" d="M2050.19,1355.38a2.41,2.41,0,0,1-1.74,2.94,2.45,2.45,0,0,1-3-1.66,2.41,2.41,0,0,1,1.74-2.94A2.45,2.45,0,0,1,2050.19,1355.38Z"/><path class="cls-82" d="M2031,1354.24a23.55,23.55,0,0,0-3.7-.18,12.22,12.22,0,0,0-3.39.58,11.68,11.68,0,0,0-3.08,1.49l-.37.24c-.13.08-.23.18-.36.27l-.72.55c-.48.38-.91.82-1.46,1.2a11.35,11.35,0,0,1,.79-1.75,8.88,8.88,0,0,1,1.22-1.54,8.13,8.13,0,0,1,3.44-2.11,8.73,8.73,0,0,1,4-.29A7.89,7.89,0,0,1,2031,1354.24Z"/><path class="cls-83" d="M2040.73,1352.14a7.79,7.79,0,0,1,2.61-2.87,8.63,8.63,0,0,1,3.8-1.41,8.18,8.18,0,0,1,4,.5,9,9,0,0,1,1.75.9,10.32,10.32,0,0,1,1.45,1.26c-.66-.13-1.23-.35-1.83-.49l-.89-.2c-.15,0-.29-.08-.43-.1l-.44-.06a11.31,11.31,0,0,0-3.43-.09,13,13,0,0,0-3.33.87A23.79,23.79,0,0,0,2040.73,1352.14Z"/><path class="cls-66" d="M2036.92,1352.73a18,18,0,0,0,.53,5.12,13.91,13.91,0,0,0,.87,2.49,6.43,6.43,0,0,0,1.69,2.31l.34.24.3.19a2.37,2.37,0,0,1,.4.28,1.89,1.89,0,0,1,.57.69,2.25,2.25,0,0,1,0,1.86,7.39,7.39,0,0,1-3.51,3.24,6.12,6.12,0,0,0,4.68-2.67,3.43,3.43,0,0,0,.36-3,2.88,2.88,0,0,0-.4-.73,3.47,3.47,0,0,0-.55-.6,4.18,4.18,0,0,0-.65-.45l-.23-.17-.19-.13a6.36,6.36,0,0,1-1.34-1.73,21.19,21.19,0,0,1-1-2.2C2038.08,1355.93,2037.52,1354.34,2036.92,1352.73Z"/><path class="cls-2" d="M2047.75,1370.85c-.32,3-3.51,5.76-7.74,6.41s-8.09-1-9.29-3.79Z"/><path class="cls-72" d="M2163.53,1456.28a19.23,19.23,0,0,0-.22-3,3.25,3.25,0,0,0-2.28-2.44l-1.32-.4-.12,3h0c.11,2.27.16,2.11-3,3.47-4.49,1.95-2.61,4.3-2.61,4.3s1.24,1.67,6.73-1.07C2160.73,1460.14,2163.36,1458.75,2163.53,1456.28Z"/><path class="cls-2" d="M2025.21,1840.26l-47,0a2.63,2.63,0,0,1-2.63-2.63h0a2.63,2.63,0,0,1,2.63-2.63l47,0a2.63,2.63,0,0,1,2.63,2.63h0A2.63,2.63,0,0,1,2025.21,1840.26Z"/><path class="cls-84" d="M1978,1819l-1.75,14.63c-.21,1.8.8,3.44,2.12,3.44l46.06,0a3.36,3.36,0,0,0,3-2.15c.65-1.44.78-3.61-1.28-6.52-4-5.67-16.92-7.18-23.72-11.84a2.35,2.35,0,0,0-1.33-.41h-20.7C1979.19,1816.16,1978.17,1817.36,1978,1819Z"/><path class="cls-2" d="M1998.58,1824.67h0a1,1,0,0,1-.26-1.2c.91-2,3.74-6.88,9.49-5.87a.82.82,0,0,1,.5,1v0c-.06.44-.36.73-.68.67-5.15-.88-7.56,3.42-8.29,5.1C1999.18,1824.7,1998.86,1824.84,1998.58,1824.67Z"/><path class="cls-2" d="M2003.37,1826.55h0a1,1,0,0,1-.27-1.19c.91-2,3.74-6.88,9.49-5.88a.83.83,0,0,1,.5,1h0c-.06.44-.35.73-.68.68-5.15-.89-7.56,3.42-8.29,5.09C2004,1826.58,2003.64,1826.72,2003.37,1826.55Z"/><path class="cls-2" d="M2007.81,1828.31h0a1,1,0,0,1-.26-1.19c.91-2,3.74-6.88,9.49-5.88a.83.83,0,0,1,.5,1h0c-.06.44-.36.73-.68.68-5.15-.88-7.56,3.41-8.29,5.09C2008.41,1828.34,2008.09,1828.48,2007.81,1828.31Z"/><path class="cls-2" d="M2093.6,1840.26l-47,0a2.63,2.63,0,0,1-2.63-2.63h0a2.63,2.63,0,0,1,2.63-2.63l47,0a2.63,2.63,0,0,1,2.63,2.63h0A2.63,2.63,0,0,1,2093.6,1840.26Z"/><path class="cls-85" d="M2046.37,1819l-1.74,14.63c-.22,1.8.79,3.44,2.11,3.44l46.06,0a3.36,3.36,0,0,0,3-2.15c.65-1.44.78-3.61-1.28-6.52-4-5.67-16.92-7.18-23.72-11.84a2.35,2.35,0,0,0-1.33-.41h-20.7C2047.58,1816.16,2046.56,1817.36,2046.37,1819Z"/><path class="cls-2" d="M2067,1824.67h0a1,1,0,0,1-.26-1.2c.91-2,3.74-6.88,9.49-5.87a.82.82,0,0,1,.5,1v0c-.06.44-.36.73-.68.67-5.15-.88-7.56,3.42-8.29,5.1C2067.57,1824.7,2067.25,1824.84,2067,1824.67Z"/><path class="cls-2" d="M2071.76,1826.55h0a1,1,0,0,1-.27-1.19c.91-2,3.74-6.88,9.49-5.88a.83.83,0,0,1,.5,1h0c-.06.44-.35.73-.68.68-5.15-.89-7.56,3.42-8.29,5.09C2072.35,1826.58,2072,1826.72,2071.76,1826.55Z"/><path class="cls-2" d="M2076.2,1828.31h0a1,1,0,0,1-.26-1.19c.91-2,3.74-6.88,9.49-5.88a.83.83,0,0,1,.5,1h0c-.06.44-.36.73-.68.68-5.15-.88-7.56,3.41-8.29,5.09C2076.8,1828.34,2076.48,1828.48,2076.2,1828.31Z"/><path class="cls-12" d="M2147.21,1451.61s-.47.39-.87,2.89-1.63,10.53-1.08,10.8,4.31-.45,4.31-.45.33-8.5-.53-9.82A33.63,33.63,0,0,1,2147.21,1451.61Z"/><path class="cls-5" d="M2155.33,1319.41l84.58-59.84,9.37,13.25-79.74,56.42a14.43,14.43,0,0,0-6.13,12.39,1.79,1.79,0,0,0,0,.31v453.55h-16.23V1332.64a14.53,14.53,0,0,1,6.25-11.94Z"/><path class="cls-12" d="M2164.51,1459.93a22.09,22.09,0,0,0-.22-3,3.26,3.26,0,0,0-2.28-2.44l-1.32-.4-.12,3h0c.11,2.27.15,2.11-3,3.47-4.48,2-2.61,4.3-2.61,4.3s1.25,1.67,6.73-1.07C2161.7,1463.79,2164.34,1462.41,2164.51,1459.93Z"/><path class="cls-12" d="M2165,1462.47a18.56,18.56,0,0,0-.22-2.82,3.1,3.1,0,0,0-2.17-2.32l-1.25-.39-.12,2.83h0c.11,2.16.15,2-2.84,3.31-4.27,1.85-2.48,4.09-2.48,4.09s1.18,1.59,6.4-1C2162.3,1466.15,2164.81,1464.83,2165,1462.47Z"/><path class="cls-12" d="M2164.29,1465.86a17.24,17.24,0,0,0-.18-2.39,2.63,2.63,0,0,0-1.84-2l-1.06-.33-.1,2.4h0c.09,1.82.13,1.7-2.4,2.8-3.62,1.56-2.1,3.46-2.1,3.46s1,1.34,5.42-.87A4.37,4.37,0,0,0,2164.29,1465.86Z"/><path class="cls-66" d="M2155.67,1461.68a2.72,2.72,0,0,0-1.21,2,2.26,2.26,0,0,0,.3,1.18.87.87,0,0,0,.22.26,1.59,1.59,0,0,0,.27.18,2.75,2.75,0,0,0,.61.21,5.72,5.72,0,0,0,2.44-.12,14.83,14.83,0,0,0,2.27-.78c.38-.15.73-.34,1.09-.5a5.14,5.14,0,0,0,1-.67,5.68,5.68,0,0,0,1.54-1.84,4.25,4.25,0,0,0,.38-1.14,4,4,0,0,0,.05-.59l0-.59a19.44,19.44,0,0,0-.34-2.29c.06.77.09,1.54.09,2.3l0,.56a4.86,4.86,0,0,1-.07.55,3.92,3.92,0,0,1-.42,1,5.75,5.75,0,0,1-1.49,1.66,5.24,5.24,0,0,1-1,.6c-.36.16-.7.34-1.06.48a16.76,16.76,0,0,1-2.19.78,5.94,5.94,0,0,1-2.25.2,1.34,1.34,0,0,1-.9-.44,2,2,0,0,1-.32-1,2.1,2.1,0,0,1,.25-1.06A4.14,4.14,0,0,1,2155.67,1461.68Z"/><path class="cls-12" d="M2164.29,1468.66a17,17,0,0,0-.18-2.39,2.63,2.63,0,0,0-1.84-2l-1.06-.32-.1,2.39h0c.09,1.83.13,1.7-2.4,2.8-3.62,1.57-2.1,3.46-2.1,3.46s1,1.34,5.42-.87A4.37,4.37,0,0,0,2164.29,1468.66Z"/><path class="cls-66" d="M2156.83,1470.39a2,2,0,0,0-.66,1.37,1.76,1.76,0,0,0,.19.78,1.14,1.14,0,0,0,.1.19,1.36,1.36,0,0,0,.18.17,1.6,1.6,0,0,0,.39.2,3.48,3.48,0,0,0,1.63.1,7.78,7.78,0,0,0,1.53-.38,13.24,13.24,0,0,0,1.44-.61,7.88,7.88,0,0,0,.7-.37,5.05,5.05,0,0,0,.63-.49,3.6,3.6,0,0,0,1.33-2.69,4,4,0,0,1-1.59,2.4,5.06,5.06,0,0,1-1.28.73,14.08,14.08,0,0,1-1.4.56,8.07,8.07,0,0,1-1.44.39,3.23,3.23,0,0,1-1.42,0,1.43,1.43,0,0,1-.31-.12l-.1-.09a.45.45,0,0,1-.1-.13,1.59,1.59,0,0,1-.23-.64,1.53,1.53,0,0,1,.07-.7A2.59,2.59,0,0,1,2156.83,1470.39Z"/><path class="cls-66" d="M2155.66,1465.31a2,2,0,0,0,0,1.66,1.16,1.16,0,0,0,.26.39,1.67,1.67,0,0,0,.4.25,3,3,0,0,0,.88.22,8,8,0,0,0,3.41-.64c.53-.22,1.06-.45,1.57-.71a5.26,5.26,0,0,0,1.41-1,5.57,5.57,0,0,0,1-1.37,3.71,3.71,0,0,0,.38-1.63,4.52,4.52,0,0,1-1.69,2.72,5.43,5.43,0,0,1-1.36.87c-.51.24-1,.46-1.54.67a12.59,12.59,0,0,1-1.58.5,6,6,0,0,1-1.62.22,2.89,2.89,0,0,1-.78-.13,1.46,1.46,0,0,1-.33-.17.85.85,0,0,1-.22-.29A1.94,1.94,0,0,1,2155.66,1465.31Z"/><path class="cls-66" d="M2156.83,1467.6a1.93,1.93,0,0,0-.66,1.37,1.79,1.79,0,0,0,.19.78l.1.19a1.22,1.22,0,0,0,.18.16,1.6,1.6,0,0,0,.39.2,3.49,3.49,0,0,0,1.63.11,7.16,7.16,0,0,0,1.53-.39,11.48,11.48,0,0,0,1.44-.6,6,6,0,0,0,.7-.38,4.19,4.19,0,0,0,.63-.48,3.62,3.62,0,0,0,1.33-2.7,4,4,0,0,1-1.59,2.41c-.2.15-.4.28-.61.41s-.44.21-.67.32a14.08,14.08,0,0,1-1.4.56,8.07,8.07,0,0,1-1.44.39,3.39,3.39,0,0,1-1.42,0,1.07,1.07,0,0,1-.31-.13.44.44,0,0,1-.1-.08.45.45,0,0,1-.1-.13,1.63,1.63,0,0,1-.23-.65,1.53,1.53,0,0,1,.07-.7A2.53,2.53,0,0,1,2156.83,1467.6Z"/><path class="cls-81" d="M2159.55,1459.68s3.7-1.53,3.89-4.29v-1.66l-4.05-.66-.61,1.78Z"/><path class="cls-86" d="M2000.85,1359.93l.65-.14-.13-5.84,1.9-5.6s8.07-15.33,8.37-15.72,7.08-5.74,7.5-6,10.71.52,10.71.52,17.4-5.84,15.43,5.11-14.43,17.75-15.15,17.34c1.88-2.59,1.44-9.4,1.44-9.4-8.8,13.37-26.82,23.34-26.82,23.34s-2.13-1.42-5.42.28Z"/></g></g></svg>