<svg data-v-423bf9ae="" xmlns="http://www.w3.org/2000/svg" viewBox="0 0 441 90" class="iconLeft"><!----><!----><!----><g data-v-423bf9ae="" id="7e6ce8f6-968b-4c10-8c4a-ee4e47c52591" fill="white" transform="matrix(6.349206477356088,0,0,6.349206477356088,65.89795663712533,15.063491820604433)"><path d="M4.52 6.58C4.52 5.85 4.33 5.28 3.92 4.84C3.96 4.80 3.99 4.77 4.03 4.73C4.47 4.30 4.62 3.60 4.62 2.73C4.62 0.85 4.02-0.01 2.30-0.01L0.53-0.01C0.25-0.01 0.03 0.21 0.03 0.49L0.03 8.92C0.03 9.20 0.25 9.42 0.53 9.42L0.92 9.42C1.19 9.42 1.41 9.20 1.41 8.92L1.41 5.49L2.04 5.49C2.73 5.49 3.12 5.88 3.12 6.58L3.12 8.92C3.12 9.20 3.35 9.42 3.63 9.42L4.02 9.42C4.30 9.42 4.52 9.20 4.52 8.92ZM1.41 1.39L2.30 1.39C3.02 1.39 3.23 1.78 3.23 2.73C3.23 3.68 2.83 4.07 2.04 4.07L1.41 4.07ZM6.08 0C5.80 0 5.57 0.22 5.57 0.50L5.57 8.93C5.57 9.21 5.80 9.44 6.08 9.44L9.10 9.44C9.38 9.44 9.60 9.21 9.60 8.93L9.60 8.55C9.60 8.27 9.38 8.05 9.10 8.05L6.96 8.05L6.96 5.40L8.72 5.40C9.00 5.40 9.23 5.18 9.23 4.90L9.23 4.52C9.23 4.24 9.00 4.02 8.72 4.02L6.96 4.02L6.96 1.39L9.10 1.39C9.38 1.39 9.60 1.16 9.60 0.88L9.60 0.50C9.60 0.22 9.38 0 9.10 0ZM10.50 6.69C10.50 7.80 10.81 8.44 11.24 8.88C11.70 9.32 12.28 9.44 12.81 9.44C13.31 9.44 13.90 9.32 14.36 8.88C14.80 8.44 15.09 7.80 15.09 6.69L15.09 6.50C15.09 6.22 14.87 5.99 14.60 5.99L14.20 5.99C13.92 5.99 13.69 6.22 13.69 6.50L13.69 6.69C13.69 7.20 13.62 7.57 13.45 7.80C13.33 7.94 13.08 8.05 12.81 8.05C12.21 8.05 11.91 7.63 11.91 6.69L11.91 2.73C11.91 1.79 12.22 1.39 12.81 1.39C13.38 1.39 13.69 1.79 13.69 2.73L13.69 2.93C13.69 3.21 13.92 3.43 14.20 3.43L14.60 3.43C14.87 3.43 15.09 3.21 15.09 2.93L15.09 2.73C15.09 1.67 14.80 0.97 14.35 0.55C13.89 0.13 13.33 0 12.81 0C12.28 0 11.72 0.13 11.26 0.55C10.81 0.97 10.50 1.67 10.50 2.73ZM17.39 0.50C17.39 0.22 17.15 0 16.88 0L16.49 0C16.21 0 15.99 0.22 15.99 0.50L15.99 8.93C15.99 9.21 16.21 9.44 16.49 9.44L16.88 9.44C17.15 9.44 17.39 9.21 17.39 8.93ZM18.31 6.69C18.31 7.80 18.62 8.44 19.05 8.88C19.52 9.32 20.09 9.44 20.62 9.44C21.13 9.44 21.71 9.32 22.18 8.88C22.61 8.44 22.90 7.80 22.90 6.69L22.90 6.50C22.90 6.22 22.68 5.99 22.41 5.99L22.01 5.99C21.73 5.99 21.50 6.22 21.50 6.50L21.50 6.69C21.50 7.20 21.43 7.57 21.27 7.80C21.14 7.94 20.89 8.05 20.62 8.05C20.02 8.05 19.73 7.63 19.73 6.69L19.73 2.73C19.73 1.79 20.03 1.39 20.62 1.39C21.20 1.39 21.50 1.79 21.50 2.73L21.50 2.93C21.50 3.21 21.73 3.43 22.01 3.43L22.41 3.43C22.68 3.43 22.90 3.21 22.90 2.93L22.90 2.73C22.90 1.67 22.61 0.97 22.16 0.55C21.70 0.13 21.14 0 20.62 0C20.09 0 19.53 0.13 19.07 0.55C18.62 0.97 18.31 1.67 18.31 2.73ZM27.75 8.55C27.75 8.27 27.52 8.05 27.24 8.05L25.16 8.05L25.16 0.50C25.16 0.22 24.93 0 24.67 0L24.26 0C23.98 0 23.76 0.22 23.76 0.50L23.76 8.93C23.76 9.21 23.98 9.44 24.26 9.44L27.24 9.44C27.52 9.44 27.75 9.21 27.75 8.93ZM32.35 9.04C32.41 9.25 32.63 9.44 32.84 9.44L33.25 9.44C33.59 9.44 33.81 9.14 33.74 8.82L31.81 0.39C31.77 0.18 31.53 0 31.32 0L31.01 0C30.80 0 30.58 0.18 30.52 0.39L29.25 5.87L28.57 8.83C28.50 9.16 28.73 9.44 29.06 9.44L29.47 9.44C29.68 9.44 29.90 9.25 29.96 9.04L30.45 6.86L31.88 6.86ZM31.16 3.23C31.43 4.42 31.40 4.80 31.56 5.47L30.77 5.47ZM36.69 9.44C38.37 9.44 39.16 8.48 39.16 6.66L39.16 2.77C39.16 0.95 38.37 0 36.69 0L35.27 0C34.99 0 34.76 0.22 34.76 0.50L34.76 8.93C34.76 9.21 34.99 9.44 35.27 9.44ZM36.69 1.39C37.44 1.39 37.74 1.83 37.74 2.77L37.74 6.66C37.74 7.60 37.44 8.05 36.69 8.05L36.15 8.05L36.15 1.39ZM40.31 6.69C40.31 7.80 40.61 8.44 41.05 8.88C41.51 9.32 42.10 9.44 42.60 9.44C43.12 9.44 43.71 9.32 44.17 8.88C44.60 8.44 44.90 7.80 44.90 6.69L44.90 2.73C44.90 0.95 44.14 0 42.60 0C41.08 0 40.31 0.97 40.31 2.73ZM41.71 2.73C41.71 1.82 41.99 1.39 42.60 1.39C43.20 1.39 43.50 1.79 43.50 2.73L43.50 6.69C43.50 7.64 43.19 8.05 42.60 8.05C42 8.05 41.71 7.62 41.71 6.69ZM48.90 6.69C48.90 7.80 49.21 8.44 49.64 8.88C50.11 9.32 50.68 9.44 51.21 9.44C51.72 9.44 52.30 9.32 52.77 8.88C53.20 8.44 53.49 7.80 53.49 6.69L53.49 6.50C53.49 6.22 53.27 5.99 53.00 5.99L52.60 5.99C52.32 5.99 52.09 6.22 52.09 6.50L52.09 6.69C52.09 7.20 52.02 7.57 51.86 7.80C51.73 7.94 51.48 8.05 51.21 8.05C50.61 8.05 50.32 7.63 50.32 6.69L50.32 2.73C50.32 1.79 50.62 1.39 51.21 1.39C51.79 1.39 52.09 1.79 52.09 2.73L52.09 2.93C52.09 3.21 52.32 3.43 52.60 3.43L53.00 3.43C53.27 3.43 53.49 3.21 53.49 2.93L53.49 2.73C53.49 1.67 53.20 0.97 52.75 0.55C52.29 0.13 51.73 0 51.21 0C50.68 0 50.12 0.13 49.66 0.55C49.21 0.97 48.90 1.67 48.90 2.73ZM54.45 6.69C54.45 8.53 55.22 9.42 56.76 9.42C58.24 9.42 59.07 8.58 59.07 7.01C59.07 5.66 58.13 4.94 57.20 4.23L57.22 4.23C56.53 3.70 55.85 3.15 55.85 2.44C55.85 1.71 56.17 1.39 56.76 1.39C57.37 1.39 57.67 1.81 57.67 2.73L57.67 2.93C57.67 3.21 57.89 3.43 58.17 3.43L58.56 3.43C58.84 3.43 59.07 3.21 59.07 2.93L59.07 2.73C59.07 0.95 58.27-0.01 56.76-0.01C55.27-0.01 54.45 0.90 54.45 2.48C54.45 3.86 55.41 4.62 56.34 5.35L56.34 5.33C57.02 5.87 57.67 6.38 57.67 7.04C57.67 7.78 57.34 8.04 56.76 8.04C56.56 8.04 56.32 8.01 56.17 7.85C55.97 7.69 55.85 7.36 55.85 6.69L55.85 6.51C55.85 6.23 55.61 6.01 55.34 6.01L54.95 6.01C54.67 6.01 54.45 6.23 54.45 6.51Z"></path></g><!----><g data-v-423bf9ae="" id="56ab94a6-0813-4616-a0a5-0e7efb813327" transform="matrix(2.8125,0,0,2.8125,-21.194407999515533,0)" stroke="none" fill="white"><path d="M18.396 26.495L7.807 15.905 18.432 5.28l.707.707-9.918 9.918 9.882 9.883z"></path><path d="M23.194 1v4.194H19V1h4.194m1-1H18v6.194h6.194V0zM23.194 26.806V31H19v-4.194h4.194m1-1H18V32h6.194v-6.194z"></path></g><!----></svg>